<svg width="147" height="46" viewBox="0 0 147 46" fill="none" xmlns="http://www.w3.org/2000/svg">
<mask id="path-1-inside-1_1_14" fill="white">
<path fill-rule="evenodd" clip-rule="evenodd" d="M73.2821 9.49341L69.6766 15.8417C69.4978 15.6474 69.3073 15.4646 69.1049 15.2931C68.4333 14.7183 67.6514 14.278 66.759 13.9721C65.8668 13.6604 64.8923 13.4951 63.8357 13.476C62.2848 13.4479 60.8782 13.7692 59.6159 14.4397C58.3536 15.1101 57.3439 16.1063 56.587 17.428C55.83 18.7498 55.4342 20.3707 55.3995 22.2909C55.3649 24.2053 55.6962 25.8366 56.3936 27.1846C57.0909 28.5327 58.0553 29.5673 59.2868 30.2886C59.8386 30.6077 60.4244 30.8585 61.0442 31.041L52.8191 45.5231L0.479706 32.0162C5.68231 27.6894 14.9847 28.4053 23.7824 29.0824C25.4715 29.2124 27.142 29.341 28.7614 29.4321V30H44.9886V25.4318H44.3687C44.8816 24.5526 45.2208 23.4988 45.3587 22.2401C45.6489 19.5928 45.049 16.0389 43.3028 11.2955H44.9886V6.72727H41.4281C40.5689 4.80818 39.5596 2.73273 38.3892 0.488785L73.2821 9.49341ZM41.4281 6.72727C42.1595 8.36077 42.7821 9.881 43.3028 11.2955H34.3864V16.0682H44.1591V20.6477H34.3864V25.4318H44.3687C41.9886 29.5121 35.868 29.8322 28.7614 29.4321V6.72727H41.4281ZM62.9722 27.6464L61.0442 31.041C61.8142 31.2678 62.6367 31.389 63.5117 31.4049C64.7103 31.4265 65.7759 31.2639 66.7085 30.9171C67.6467 30.5704 68.4452 30.0961 69.1039 29.4942C69.7627 28.8867 70.2835 28.2114 70.6664 27.4682C71.0548 26.7251 71.293 25.9679 71.3808 25.1966L67.1206 25.094C67.0392 25.5131 66.8988 25.8885 66.6996 26.2201C66.5062 26.5462 66.2597 26.8231 65.9601 27.0507C65.6662 27.2727 65.3251 27.4398 64.9366 27.5521C64.5539 27.6646 64.1296 27.7166 63.6637 27.7081C63.4236 27.7038 63.1931 27.6832 62.9722 27.6464ZM67.2573 20.1014L69.6766 15.8417C70.091 16.2921 70.442 16.8038 70.7294 17.3767C71.1408 18.1968 71.3882 19.1304 71.4715 20.1775L67.2573 20.1014ZM67.2573 20.1014L67.2109 20.1005C67.1619 19.6621 67.0526 19.2652 66.8829 18.9098C66.7131 18.5544 66.4857 18.2491 66.2005 17.9939C65.9153 17.7387 65.575 17.5422 65.1797 17.4043C64.7902 17.2609 64.3568 17.1849 63.8796 17.1762C63.0332 17.1609 62.2994 17.3551 61.6784 17.7587C61.0631 18.1624 60.5835 18.7533 60.2399 19.5313C59.9019 20.3094 59.7229 21.2552 59.7027 22.3687C59.6818 23.5276 59.829 24.502 60.1443 25.2919C60.4654 26.0762 60.9235 26.6727 61.5184 27.0812C61.9453 27.3675 62.4299 27.5559 62.9722 27.6464L67.2573 20.1014ZM73.6841 31.35L73.9995 13.8983L78.2175 13.9746L77.964 28.0007L84.036 28.1104C81.3165 28.6446 78.6269 29.6995 76.1389 31.3944L73.6841 31.35ZM58.7281 45C61.3969 44.0019 65.8261 41.1739 73 34C73.998 33.002 75.0491 32.1368 76.1389 31.3944L85.1623 31.5575L85.2242 28.1319L84.036 28.1104C85.4299 27.8366 86.8316 27.6997 88.2181 27.6835L86.8218 31.5875L91.3552 31.6694L92.5695 28.026L92.5854 28.0262C94.9555 28.4258 97.1981 29.1556 99.1817 30.1245L99.6805 31.8198L102.113 31.8638C107.007 35.374 109.074 40.5189 105 45H58.7281ZM55 45C55 45 55.8166 46.0888 58.7281 45H55ZM123.476 28.4582C119.548 29.0652 117.136 32.4913 114.574 36.1297C112.055 39.7074 109.392 43.4904 105 45H137C137 45 158 50 137 34C136.019 33.2523 135.086 32.5892 134.2 32.0047C135.206 31.6037 135.985 31.0226 136.537 30.2611C137.102 29.4814 137.398 28.5406 137.424 27.4386C137.43 26.7398 137.323 26.107 137.1 25.5404C136.877 24.9738 136.542 24.4705 136.096 24.0305C135.655 23.5907 135.105 23.2085 134.446 22.8841C133.792 22.5597 133.036 22.296 132.176 22.0929L130.682 21.725C130.286 21.6326 129.93 21.5267 129.614 21.4073C129.298 21.2879 129.027 21.1524 128.803 21.0005C128.584 20.8432 128.417 20.664 128.301 20.463C128.191 20.2621 128.144 20.0311 128.16 19.77C128.171 19.452 128.27 19.1724 128.456 18.9314C128.643 18.6848 128.919 18.4937 129.285 18.3583C129.651 18.2228 130.107 18.16 130.652 18.1699C131.476 18.1848 132.106 18.3723 132.543 18.7325C132.986 19.0872 133.23 19.5775 133.275 20.2034L137.314 20.2764C137.323 19.1911 137.059 18.2317 136.522 17.398C135.986 16.5643 135.222 15.9112 134.231 15.4386C133.245 14.9605 132.076 14.7092 130.724 14.6848C129.4 14.6609 128.217 14.8668 127.175 15.3026C126.133 15.7384 125.312 16.3572 124.712 17.159C124.113 17.9608 123.806 18.9014 123.792 19.9809C123.762 21.3044 124.175 22.3632 125.03 23.1572C125.885 23.9455 127.065 24.5265 128.57 24.9004L130.386 25.3594C131.02 25.5186 131.539 25.69 131.945 25.8735C132.357 26.0514 132.66 26.2614 132.854 26.5036C133.049 26.7401 133.146 27.0232 133.146 27.3528C133.134 27.7049 133.018 28.0153 132.797 28.2841C132.576 28.5529 132.262 28.7603 131.856 28.9064C131.456 29.0526 130.972 29.1206 130.404 29.1103C129.784 29.0991 129.241 28.9927 128.773 28.791C128.31 28.5895 127.949 28.2988 127.689 27.919C127.429 27.5393 127.287 27.0679 127.263 26.5049L123.223 26.4319C123.219 27.1759 123.304 27.8514 123.476 28.4582ZM123.476 28.4582C126.163 28.0429 129.56 28.9469 134.2 32.0047C134.176 32.0143 134.151 32.0238 134.127 32.0332C133.091 32.435 131.846 32.6228 130.392 32.5965C128.932 32.5701 127.663 32.3284 126.586 31.8714C125.509 31.4143 124.677 30.7344 124.091 29.8316C123.825 29.4214 123.62 28.9636 123.476 28.4582ZM102.113 31.8638L104.214 31.9018L98.641 14.3437L93.0255 14.2422L88.2181 27.6835C89.7007 27.6662 91.1659 27.787 92.5854 28.0262L98.5963 28.1349L99.1817 30.1245C100.239 30.6409 101.223 31.2253 102.113 31.8638ZM95.8177 18.6911L97.6483 24.9127L93.6312 24.8401L95.6814 18.6886L95.8177 18.6911ZM112.543 32.0523L106.093 31.9357L106.408 14.484L112.85 14.6005C114.628 14.6326 116.153 15.0096 117.424 15.7316C118.701 16.448 119.678 17.4658 120.353 18.785C121.028 20.0985 121.349 21.6614 121.316 23.4736C121.284 25.2915 120.906 26.8474 120.184 28.1414C119.467 29.4355 118.457 30.4203 117.155 31.0957C115.853 31.7655 114.316 32.0843 112.543 32.0523ZM110.376 28.416L112.447 28.4534C113.424 28.471 114.253 28.3212 114.935 28.004C115.623 27.6811 116.147 27.1479 116.507 26.4042C116.873 25.6551 117.067 24.6527 117.09 23.3972C117.113 22.1418 116.954 21.1387 116.616 20.3882C116.277 19.6319 115.767 19.0829 115.086 18.7409C114.41 18.3935 113.572 18.2107 112.572 18.1926L110.561 18.1563L110.376 28.416Z"/>
</mask>
<path fill-rule="evenodd" clip-rule="evenodd" d="M73.2821 9.49341L69.6766 15.8417C69.4978 15.6474 69.3073 15.4646 69.1049 15.2931C68.4333 14.7183 67.6514 14.278 66.759 13.9721C65.8668 13.6604 64.8923 13.4951 63.8357 13.476C62.2848 13.4479 60.8782 13.7692 59.6159 14.4397C58.3536 15.1101 57.3439 16.1063 56.587 17.428C55.83 18.7498 55.4342 20.3707 55.3995 22.2909C55.3649 24.2053 55.6962 25.8366 56.3936 27.1846C57.0909 28.5327 58.0553 29.5673 59.2868 30.2886C59.8386 30.6077 60.4244 30.8585 61.0442 31.041L52.8191 45.5231L0.479706 32.0162C5.68231 27.6894 14.9847 28.4053 23.7824 29.0824C25.4715 29.2124 27.142 29.341 28.7614 29.4321V30H44.9886V25.4318H44.3687C44.8816 24.5526 45.2208 23.4988 45.3587 22.2401C45.6489 19.5928 45.049 16.0389 43.3028 11.2955H44.9886V6.72727H41.4281C40.5689 4.80818 39.5596 2.73273 38.3892 0.488785L73.2821 9.49341ZM41.4281 6.72727C42.1595 8.36077 42.7821 9.881 43.3028 11.2955H34.3864V16.0682H44.1591V20.6477H34.3864V25.4318H44.3687C41.9886 29.5121 35.868 29.8322 28.7614 29.4321V6.72727H41.4281ZM62.9722 27.6464L61.0442 31.041C61.8142 31.2678 62.6367 31.389 63.5117 31.4049C64.7103 31.4265 65.7759 31.2639 66.7085 30.9171C67.6467 30.5704 68.4452 30.0961 69.1039 29.4942C69.7627 28.8867 70.2835 28.2114 70.6664 27.4682C71.0548 26.7251 71.293 25.9679 71.3808 25.1966L67.1206 25.094C67.0392 25.5131 66.8988 25.8885 66.6996 26.2201C66.5062 26.5462 66.2597 26.8231 65.9601 27.0507C65.6662 27.2727 65.3251 27.4398 64.9366 27.5521C64.5539 27.6646 64.1296 27.7166 63.6637 27.7081C63.4236 27.7038 63.1931 27.6832 62.9722 27.6464ZM67.2573 20.1014L69.6766 15.8417C70.091 16.2921 70.442 16.8038 70.7294 17.3767C71.1408 18.1968 71.3882 19.1304 71.4715 20.1775L67.2573 20.1014ZM67.2573 20.1014L67.2109 20.1005C67.1619 19.6621 67.0526 19.2652 66.8829 18.9098C66.7131 18.5544 66.4857 18.2491 66.2005 17.9939C65.9153 17.7387 65.575 17.5422 65.1797 17.4043C64.7902 17.2609 64.3568 17.1849 63.8796 17.1762C63.0332 17.1609 62.2994 17.3551 61.6784 17.7587C61.0631 18.1624 60.5835 18.7533 60.2399 19.5313C59.9019 20.3094 59.7229 21.2552 59.7027 22.3687C59.6818 23.5276 59.829 24.502 60.1443 25.2919C60.4654 26.0762 60.9235 26.6727 61.5184 27.0812C61.9453 27.3675 62.4299 27.5559 62.9722 27.6464L67.2573 20.1014ZM73.6841 31.35L73.9995 13.8983L78.2175 13.9746L77.964 28.0007L84.036 28.1104C81.3165 28.6446 78.6269 29.6995 76.1389 31.3944L73.6841 31.35ZM58.7281 45C61.3969 44.0019 65.8261 41.1739 73 34C73.998 33.002 75.0491 32.1368 76.1389 31.3944L85.1623 31.5575L85.2242 28.1319L84.036 28.1104C85.4299 27.8366 86.8316 27.6997 88.2181 27.6835L86.8218 31.5875L91.3552 31.6694L92.5695 28.026L92.5854 28.0262C94.9555 28.4258 97.1981 29.1556 99.1817 30.1245L99.6805 31.8198L102.113 31.8638C107.007 35.374 109.074 40.5189 105 45H58.7281ZM55 45C55 45 55.8166 46.0888 58.7281 45H55ZM123.476 28.4582C119.548 29.0652 117.136 32.4913 114.574 36.1297C112.055 39.7074 109.392 43.4904 105 45H137C137 45 158 50 137 34C136.019 33.2523 135.086 32.5892 134.2 32.0047C135.206 31.6037 135.985 31.0226 136.537 30.2611C137.102 29.4814 137.398 28.5406 137.424 27.4386C137.43 26.7398 137.323 26.107 137.1 25.5404C136.877 24.9738 136.542 24.4705 136.096 24.0305C135.655 23.5907 135.105 23.2085 134.446 22.8841C133.792 22.5597 133.036 22.296 132.176 22.0929L130.682 21.725C130.286 21.6326 129.93 21.5267 129.614 21.4073C129.298 21.2879 129.027 21.1524 128.803 21.0005C128.584 20.8432 128.417 20.664 128.301 20.463C128.191 20.2621 128.144 20.0311 128.16 19.77C128.171 19.452 128.27 19.1724 128.456 18.9314C128.643 18.6848 128.919 18.4937 129.285 18.3583C129.651 18.2228 130.107 18.16 130.652 18.1699C131.476 18.1848 132.106 18.3723 132.543 18.7325C132.986 19.0872 133.23 19.5775 133.275 20.2034L137.314 20.2764C137.323 19.1911 137.059 18.2317 136.522 17.398C135.986 16.5643 135.222 15.9112 134.231 15.4386C133.245 14.9605 132.076 14.7092 130.724 14.6848C129.4 14.6609 128.217 14.8668 127.175 15.3026C126.133 15.7384 125.312 16.3572 124.712 17.159C124.113 17.9608 123.806 18.9014 123.792 19.9809C123.762 21.3044 124.175 22.3632 125.03 23.1572C125.885 23.9455 127.065 24.5265 128.57 24.9004L130.386 25.3594C131.02 25.5186 131.539 25.69 131.945 25.8735C132.357 26.0514 132.66 26.2614 132.854 26.5036C133.049 26.7401 133.146 27.0232 133.146 27.3528C133.134 27.7049 133.018 28.0153 132.797 28.2841C132.576 28.5529 132.262 28.7603 131.856 28.9064C131.456 29.0526 130.972 29.1206 130.404 29.1103C129.784 29.0991 129.241 28.9927 128.773 28.791C128.31 28.5895 127.949 28.2988 127.689 27.919C127.429 27.5393 127.287 27.0679 127.263 26.5049L123.223 26.4319C123.219 27.1759 123.304 27.8514 123.476 28.4582ZM123.476 28.4582C126.163 28.0429 129.56 28.9469 134.2 32.0047C134.176 32.0143 134.151 32.0238 134.127 32.0332C133.091 32.435 131.846 32.6228 130.392 32.5965C128.932 32.5701 127.663 32.3284 126.586 31.8714C125.509 31.4143 124.677 30.7344 124.091 29.8316C123.825 29.4214 123.62 28.9636 123.476 28.4582ZM102.113 31.8638L104.214 31.9018L98.641 14.3437L93.0255 14.2422L88.2181 27.6835C89.7007 27.6662 91.1659 27.787 92.5854 28.0262L98.5963 28.1349L99.1817 30.1245C100.239 30.6409 101.223 31.2253 102.113 31.8638ZM95.8177 18.6911L97.6483 24.9127L93.6312 24.8401L95.6814 18.6886L95.8177 18.6911ZM112.543 32.0523L106.093 31.9357L106.408 14.484L112.85 14.6005C114.628 14.6326 116.153 15.0096 117.424 15.7316C118.701 16.448 119.678 17.4658 120.353 18.785C121.028 20.0985 121.349 21.6614 121.316 23.4736C121.284 25.2915 120.906 26.8474 120.184 28.1414C119.467 29.4355 118.457 30.4203 117.155 31.0957C115.853 31.7655 114.316 32.0843 112.543 32.0523ZM110.376 28.416L112.447 28.4534C113.424 28.471 114.253 28.3212 114.935 28.004C115.623 27.6811 116.147 27.1479 116.507 26.4042C116.873 25.6551 117.067 24.6527 117.09 23.3972C117.113 22.1418 116.954 21.1387 116.616 20.3882C116.277 19.6319 115.767 19.0829 115.086 18.7409C114.41 18.3935 113.572 18.2107 112.572 18.1926L110.561 18.1563L110.376 28.416Z" fill="#4D8EEF"/>
<path d="M52.944 45.039L0.604645 31.532L0.354767 32.5003L52.6942 46.0073L52.944 45.039ZM37.913 0.641354L44.8826 22.3926L45.8349 22.0875L38.8653 0.336215L37.913 0.641354ZM73.2821 9.49341L74.1516 9.98727L74.7967 8.85151L73.532 8.52513L73.2821 9.49341ZM69.1049 15.2931L68.4546 16.0528L68.4584 16.056L69.1049 15.2931ZM66.759 13.9721L66.4293 14.9161L66.4347 14.918L66.759 13.9721ZM63.8357 13.476L63.8176 14.4758L63.8176 14.4758L63.8357 13.476ZM59.6159 14.4397L60.085 15.3228L60.085 15.3228L59.6159 14.4397ZM56.587 17.428L55.7192 16.9311L55.7192 16.9311L56.587 17.428ZM55.3995 22.2909L54.3996 22.2728L54.3996 22.2728L55.3995 22.2909ZM56.3936 27.1846L55.5054 27.6441L55.5054 27.6441L56.3936 27.1846ZM59.2868 30.2886L58.7815 31.1515L58.7861 31.1542L59.2868 30.2886ZM52.8191 45.5231L52.5692 46.4914L53.3105 46.6827L53.6886 46.017L52.8191 45.5231ZM0.479706 32.0162L-0.159714 31.2473L-1.66158 32.4963L0.229828 32.9845L0.479706 32.0162ZM23.7824 29.0824L23.8592 28.0853L23.8592 28.0853L23.7824 29.0824ZM28.7614 30H27.7614V31H28.7614V30ZM44.9886 30V31H45.9886V30H44.9886ZM44.9886 25.4318H45.9886V24.4318H44.9886V25.4318ZM45.3587 22.2401L46.3528 22.349L46.3528 22.349L45.3587 22.2401ZM44.9886 11.2955V12.2955H45.9886V11.2955H44.9886ZM44.9886 6.72727H45.9886V5.72727H44.9886V6.72727ZM38.3892 0.488785L38.639 -0.479493L36.4635 -1.04094L37.5025 0.951238L38.3892 0.488785ZM34.3864 11.2955V10.2955H33.3864V11.2955H34.3864ZM34.3864 16.0682H33.3864V17.0682H34.3864V16.0682ZM44.1591 16.0682H45.1591V15.0682H44.1591V16.0682ZM44.1591 20.6477V21.6477H45.1591V20.6477H44.1591ZM34.3864 20.6477V19.6477H33.3864V20.6477H34.3864ZM34.3864 25.4318H33.3864V26.4318H34.3864V25.4318ZM28.7614 6.72727V5.72727H27.7614V6.72727H28.7614ZM63.5117 31.4049L63.4936 32.4047L63.4936 32.4047L63.5117 31.4049ZM66.7085 30.9171L66.3619 29.9791L66.3599 29.9798L66.7085 30.9171ZM69.1039 29.4942L69.7784 30.2325L69.7818 30.2294L69.1039 29.4942ZM70.6664 27.4682L69.7801 27.0049L69.7774 27.0102L70.6664 27.4682ZM71.3808 25.1966L72.3744 25.3097L72.4981 24.2232L71.4049 24.1969L71.3808 25.1966ZM67.1206 25.094L67.1447 24.0943L66.3002 24.074L66.139 24.9032L67.1206 25.094ZM66.6996 26.2201L65.8423 25.7053L65.8395 25.71L66.6996 26.2201ZM65.9601 27.0507L66.5629 27.8486L66.5649 27.847L65.9601 27.0507ZM64.9366 27.5521L64.6589 26.5915L64.6548 26.5927L64.9366 27.5521ZM63.6637 27.7081L63.6818 26.7083L63.6818 26.7083L63.6637 27.7081ZM70.7294 17.3767L71.6232 16.9283L70.7294 17.3767ZM71.4715 20.1775L71.4535 21.1774L72.5559 21.1973L72.4684 20.0982L71.4715 20.1775ZM67.2109 20.1005L66.217 20.2114L66.3144 21.0845L67.1928 21.1004L67.2109 20.1005ZM66.8829 18.9098L65.9805 19.3407L65.9805 19.3407L66.8829 18.9098ZM66.2005 17.9939L66.8673 17.2486L66.8673 17.2486L66.2005 17.9939ZM65.1797 17.4043L64.8342 18.3427L64.8423 18.3457L64.8504 18.3485L65.1797 17.4043ZM63.8796 17.1762L63.8977 16.1764L63.8977 16.1764L63.8796 17.1762ZM61.6784 17.7587L61.1335 16.9202L61.1298 16.9226L61.6784 17.7587ZM60.2399 19.5313L59.3251 19.1272L59.3227 19.1329L60.2399 19.5313ZM59.7027 22.3687L60.7026 22.3867L60.7026 22.3867L59.7027 22.3687ZM60.1443 25.2919L59.2155 25.6626L59.2189 25.6708L60.1443 25.2919ZM61.5184 27.0812L60.9524 27.9056L60.9614 27.9117L61.5184 27.0812ZM73.9995 13.8983L74.0175 12.8985L73.0177 12.8804L72.9996 13.8803L73.9995 13.8983ZM73.6841 31.35L72.6842 31.332L72.6662 32.3318L73.666 32.3499L73.6841 31.35ZM78.2175 13.9746L79.2174 13.9926L79.2354 12.9928L78.2356 12.9747L78.2175 13.9746ZM77.964 28.0007L76.9642 27.9826L76.9461 28.9824L77.946 29.0005L77.964 28.0007ZM73 34L73.7071 34.7071L73.7071 34.7071L73 34ZM85.1623 31.5575L85.1442 32.5573L86.1441 32.5754L86.1621 31.5755L85.1623 31.5575ZM85.2242 28.1319L86.224 28.15L86.2421 27.1501L85.2423 27.132L85.2242 28.1319ZM86.8218 31.5875L85.8802 31.2507L85.4112 32.5621L86.8038 32.5873L86.8218 31.5875ZM91.3552 31.6694L91.3371 32.6692L92.0716 32.6825L92.3039 31.9856L91.3552 31.6694ZM92.5695 28.026L92.5875 27.0261L91.853 27.0129L91.6208 27.7098L92.5695 28.026ZM99.6805 31.8198L98.7212 32.1021L98.9284 32.8064L99.6625 32.8197L99.6805 31.8198ZM55 45V44H53L54.2 45.6L55 45ZM114.574 36.1297L115.392 36.7054L115.392 36.7054L114.574 36.1297ZM137 45L137.232 44.0272L137.117 44H137V45ZM137 34L136.394 34.7954L136.394 34.7954L137 34ZM136.537 30.2611L137.347 30.8481L137.347 30.8481L136.537 30.2611ZM137.424 27.4386L138.423 27.4618L138.423 27.4486L137.424 27.4386ZM136.096 24.0305L135.389 24.7386L135.394 24.743L136.096 24.0305ZM134.446 22.8841L134.001 23.7798L134.004 23.7812L134.446 22.8841ZM132.176 22.0929L131.936 23.0639L131.946 23.0662L132.176 22.0929ZM130.682 21.725L130.921 20.7539L130.909 20.7511L130.682 21.725ZM129.614 21.4073L129.26 22.3428L129.26 22.3428L129.614 21.4073ZM128.803 21.0005L128.219 21.8123L128.231 21.8208L128.243 21.829L128.803 21.0005ZM128.301 20.463L127.424 20.9433L127.429 20.9527L127.434 20.9619L128.301 20.463ZM128.16 19.77L129.158 19.8315L129.159 19.8187L129.159 19.8059L128.16 19.77ZM128.456 18.9314L129.248 19.5429L129.254 19.5341L128.456 18.9314ZM130.652 18.1699L130.634 19.1697L130.634 19.1697L130.652 18.1699ZM132.543 18.7325L131.907 19.5041L131.918 19.5129L132.543 18.7325ZM133.275 20.2034L132.278 20.2759L132.344 21.1867L133.257 21.2032L133.275 20.2034ZM137.314 20.2764L137.296 21.2762L138.307 21.2945L138.314 20.284L137.314 20.2764ZM136.522 17.398L137.364 16.8571L137.364 16.8571L136.522 17.398ZM134.231 15.4386L133.794 16.3384L133.801 16.3414L134.231 15.4386ZM130.724 14.6848L130.742 13.685L130.742 13.685L130.724 14.6848ZM127.175 15.3026L127.561 16.2252L127.561 16.2252L127.175 15.3026ZM124.712 17.159L123.912 16.5599L123.912 16.5599L124.712 17.159ZM123.792 19.9809L124.792 20.0032L124.792 19.9937L123.792 19.9809ZM125.03 23.1572L124.35 23.89L124.352 23.8924L125.03 23.1572ZM128.57 24.9004L128.815 23.9309L128.811 23.9299L128.57 24.9004ZM130.386 25.3594L130.141 26.3289L130.142 26.3293L130.386 25.3594ZM131.945 25.8735L131.533 26.7846L131.541 26.7881L131.548 26.7914L131.945 25.8735ZM132.854 26.5036L132.075 27.1299L132.082 27.1391L132.854 26.5036ZM133.146 27.3528L134.145 27.387L134.146 27.3703L134.146 27.3536L133.146 27.3528ZM132.797 28.2841L133.569 28.9189L133.569 28.9189L132.797 28.2841ZM131.856 28.9064L131.518 27.9655L131.513 27.9671L131.856 28.9064ZM130.404 29.1103L130.385 30.1102L130.385 30.1102L130.404 29.1103ZM128.773 28.791L128.373 29.7077L128.377 29.7094L128.773 28.791ZM127.263 26.5049L128.262 26.4624L128.222 25.522L127.281 25.505L127.263 26.5049ZM123.223 26.4319L123.242 25.432L122.229 25.4137L122.224 26.4263L123.223 26.4319ZM134.127 32.0332L133.767 31.1002L133.765 31.1009L134.127 32.0332ZM130.392 32.5965L130.374 33.5963L130.374 33.5963L130.392 32.5965ZM126.586 31.8714L126.977 30.9508L126.977 30.9508L126.586 31.8714ZM124.091 29.8316L123.252 30.3761L123.252 30.3761L124.091 29.8316ZM104.214 31.9018L104.196 32.9016L105.588 32.9268L105.167 31.5992L104.214 31.9018ZM98.641 14.3437L99.5942 14.0411L99.377 13.3568L98.6591 13.3438L98.641 14.3437ZM93.0255 14.2422L93.0435 13.2423L92.3257 13.2294L92.0839 13.9054L93.0255 14.2422ZM98.5963 28.1349L99.5557 27.8526L99.3484 27.1483L98.6144 27.135L98.5963 28.1349ZM97.6483 24.9127L97.6302 25.9125L98.9921 25.9371L98.6076 24.6304L97.6483 24.9127ZM95.8177 18.6911L96.777 18.4088L96.5698 17.7045L95.8358 17.6912L95.8177 18.6911ZM93.6312 24.8401L92.6825 24.5239L92.2521 25.8153L93.6132 25.8399L93.6312 24.8401ZM95.6814 18.6886L95.6994 17.6888L94.9649 17.6755L94.7327 18.3724L95.6814 18.6886ZM106.093 31.9357L105.093 31.9177L105.075 32.9175L106.075 32.9356L106.093 31.9357ZM112.543 32.0523L112.525 33.0521L112.525 33.0521L112.543 32.0523ZM106.408 14.484L106.426 13.4842L105.426 13.4661L105.408 14.466L106.408 14.484ZM112.85 14.6005L112.868 13.6006L112.868 13.6006L112.85 14.6005ZM117.424 15.7316L116.931 16.6012L116.935 16.6037L117.424 15.7316ZM120.353 18.785L119.462 19.2406L119.463 19.2422L120.353 18.785ZM121.316 23.4736L120.317 23.4556L120.317 23.4556L121.316 23.4736ZM120.184 28.1414L119.31 27.654L119.309 27.6569L120.184 28.1414ZM117.155 31.0957L117.613 31.985L117.616 31.9834L117.155 31.0957ZM112.447 28.4534L112.465 27.4535L112.465 27.4535L112.447 28.4534ZM110.376 28.416L109.376 28.3979L109.358 29.3977L110.358 29.4158L110.376 28.416ZM114.935 28.004L115.357 28.9106L115.36 28.9092L114.935 28.004ZM116.507 26.4042L115.608 25.9654L115.607 25.9684L116.507 26.4042ZM117.09 23.3972L116.09 23.3792L116.09 23.3792L117.09 23.3972ZM116.616 20.3882L115.703 20.7969L115.704 20.7996L116.616 20.3882ZM115.086 18.7409L114.628 19.6303L114.637 19.6347L115.086 18.7409ZM112.572 18.1926L112.59 17.1928L112.59 17.1928L112.572 18.1926ZM110.561 18.1563L110.579 17.1564L109.58 17.1384L109.561 18.1382L110.561 18.1563ZM70.5461 16.3356L74.1516 9.98727L72.4126 8.99956L68.8071 15.3479L70.5461 16.3356ZM70.4125 15.1646C70.2056 14.9397 69.9851 14.7282 69.7513 14.5301L68.4584 16.056C68.6294 16.2009 68.7901 16.3551 68.9407 16.5188L70.4125 15.1646ZM69.7551 14.5333C68.9813 13.8711 68.087 13.3702 67.0833 13.0261L66.4347 14.918C67.2157 15.1858 67.8853 15.5656 68.4546 16.0528L69.7551 14.5333ZM67.0887 13.028C66.0852 12.6775 65.0042 12.4969 63.8538 12.4761L63.8176 14.4758C64.7805 14.4932 65.6484 14.6434 66.4293 14.9161L67.0887 13.028ZM63.8538 12.4761C62.1481 12.4453 60.5716 12.7997 59.1468 13.5565L60.085 15.3228C61.1848 14.7386 62.4215 14.4506 63.8176 14.4758L63.8538 12.4761ZM59.1468 13.5565C57.7067 14.3214 56.5635 15.4568 55.7192 16.9311L57.4547 17.925C58.1243 16.7558 59.0004 15.8989 60.085 15.3228L59.1468 13.5565ZM55.7192 16.9311C54.8596 18.4321 54.4366 20.2275 54.3996 22.2728L56.3993 22.309C56.4317 20.514 56.8004 19.0675 57.4547 17.925L55.7192 16.9311ZM54.3996 22.2728C54.3628 24.3107 54.7144 26.115 55.5054 27.6441L57.2818 26.7252C56.6781 25.5582 56.3669 24.1 56.3993 22.309L54.3996 22.2728ZM55.5054 27.6441C56.2839 29.149 57.3763 30.3285 58.7815 31.1515L59.7922 29.4257C58.7344 28.8062 57.898 27.9164 57.2818 26.7252L55.5054 27.6441ZM58.7861 31.1542C59.4076 31.5137 60.0668 31.7957 60.7617 32.0003L61.3266 30.0818C60.782 29.9214 60.2696 29.7018 59.7875 29.4229L58.7861 31.1542ZM53.6886 46.017L61.9137 31.5349L60.1746 30.5472L51.9496 45.0293L53.6886 46.017ZM0.229828 32.9845L52.5692 46.4914L53.069 44.5548L0.729584 31.0479L0.229828 32.9845ZM23.8592 28.0853C19.4777 27.7482 14.8767 27.3921 10.715 27.6752C6.56378 27.9575 2.68271 28.8834 -0.159714 31.2473L1.11913 32.785C3.4793 30.8222 6.85075 29.9426 10.8508 29.6706C14.8404 29.3992 19.2895 29.7396 23.7057 30.0795L23.8592 28.0853ZM28.8176 28.4337C27.2103 28.3432 25.5503 28.2155 23.8592 28.0853L23.7057 30.0795C25.3928 30.2093 27.0738 30.3387 28.7052 30.4305L28.8176 28.4337ZM27.7614 29.4321V30H29.7614V29.4321H27.7614ZM28.7614 31H44.9886V29H28.7614V31ZM45.9886 30V25.4318H43.9886V30H45.9886ZM44.9886 24.4318H44.3687V26.4318H44.9886V24.4318ZM44.3647 22.1311C44.2397 23.2719 43.9371 24.1871 43.5049 24.928L45.2325 25.9357C45.8261 24.9182 46.2019 23.7258 46.3528 22.349L44.3647 22.1311ZM42.3644 11.6409C44.0888 16.3251 44.6302 19.7082 44.3647 22.1311L46.3528 22.349C46.6675 19.4774 46.0092 15.7526 44.2412 10.95L42.3644 11.6409ZM43.3028 12.2955H44.9886V10.2955H43.3028V12.2955ZM45.9886 11.2955V6.72727H43.9886V11.2955H45.9886ZM44.9886 5.72727H41.4281V7.72727H44.9886V5.72727ZM37.5025 0.951238C38.6652 3.1803 39.6655 5.23766 40.5154 7.13591L42.3408 6.31864C41.4722 4.37869 40.454 2.28517 39.2758 0.026332L37.5025 0.951238ZM73.532 8.52513L38.639 -0.479493L38.1393 1.45706L73.0322 10.4617L73.532 8.52513ZM40.5154 7.13591C41.2388 8.75168 41.8526 10.2507 42.3644 11.6409L44.2412 10.95C43.7116 9.51129 43.0801 7.96987 42.3408 6.31864L40.5154 7.13591ZM34.3864 12.2955H43.3028V10.2955H34.3864V12.2955ZM35.3864 16.0682V11.2955H33.3864V16.0682H35.3864ZM44.1591 15.0682H34.3864V17.0682H44.1591V15.0682ZM45.1591 20.6477V16.0682H43.1591V20.6477H45.1591ZM34.3864 21.6477H44.1591V19.6477H34.3864V21.6477ZM35.3864 25.4318V20.6477H33.3864V25.4318H35.3864ZM44.3687 24.4318H34.3864V26.4318H44.3687V24.4318ZM43.5049 24.928C42.5184 26.6191 40.7182 27.6191 38.1425 28.1313C35.5594 28.6449 32.361 28.6332 28.8176 28.4337L28.7052 30.4305C32.2684 30.6311 35.6836 30.6594 38.5325 30.0929C41.3887 29.525 43.8389 28.3248 45.2325 25.9357L43.5049 24.928ZM27.7614 6.72727V29.4321H29.7614V6.72727H27.7614ZM41.4281 5.72727H28.7614V7.72727H41.4281V5.72727ZM61.9137 31.5349L63.8417 28.1402L62.1026 27.1525L60.1746 30.5472L61.9137 31.5349ZM60.7617 32.0003C61.625 32.2545 62.5371 32.3874 63.4936 32.4047L63.5297 30.405C62.7363 30.3907 62.0034 30.281 61.3266 30.0818L60.7617 32.0003ZM63.4936 32.4047C64.7923 32.4282 65.986 32.2527 67.0571 31.8544L66.3599 29.9798C65.5659 30.2751 64.6283 30.4249 63.5297 30.405L63.4936 32.4047ZM67.0552 31.8551C68.0999 31.469 69.0135 30.9314 69.7784 30.2325L68.4294 28.756C67.8769 29.2607 67.1936 29.6717 66.3619 29.9791L67.0552 31.8551ZM69.7818 30.2294C70.5205 29.5483 71.1152 28.7806 71.5554 27.9261L69.7774 27.0102C69.4519 27.6421 69.005 28.2252 68.426 28.7591L69.7818 30.2294ZM71.5526 27.9315C71.9935 27.088 72.2716 26.2128 72.3744 25.3097L70.3872 25.0835C70.3144 25.7229 70.1162 26.3621 69.7802 27.0049L71.5526 27.9315ZM71.4049 24.1969L67.1447 24.0943L67.0965 26.0938L71.3567 26.1963L71.4049 24.1969ZM66.139 24.9032C66.0775 25.2196 65.9756 25.4833 65.8424 25.7053L67.5569 26.735C67.822 26.2936 68.0008 25.8065 68.1022 25.2848L66.139 24.9032ZM65.8395 25.71C65.7114 25.926 65.5513 26.1054 65.3552 26.2543L66.5649 27.847C66.9681 27.5408 67.301 27.1665 67.5597 26.7303L65.8395 25.71ZM65.3573 26.2528C65.17 26.3942 64.9414 26.5098 64.6589 26.5915L65.2144 28.5128C65.7087 28.3699 66.1624 28.1511 66.5629 27.8485L65.3573 26.2528ZM64.6548 26.5927C64.3841 26.6722 64.0628 26.7152 63.6818 26.7083L63.6456 28.708C64.1963 28.7179 64.7236 28.657 65.2184 28.5116L64.6548 26.5927ZM63.6818 26.7083C63.4873 26.7048 63.3059 26.6882 63.1367 26.66L62.8077 28.6327C63.0803 28.6782 63.36 28.7028 63.6456 28.708L63.6818 26.7083ZM68.1269 20.5952L70.5461 16.3356L68.8071 15.3479L66.3878 19.6075L68.1269 20.5952ZM71.6232 16.9283C71.296 16.2761 70.8929 15.6867 70.4125 15.1646L68.9407 16.5188C69.2892 16.8976 69.5879 17.3315 69.8356 17.8251L71.6232 16.9283ZM72.4684 20.0982C72.3762 18.941 72.1002 17.8791 71.6232 16.9283L69.8356 17.8251C70.1814 18.5145 70.4001 19.3198 70.4747 20.2569L72.4684 20.0982ZM67.2393 21.1012L71.4535 21.1774L71.4896 19.1777L67.2754 19.1015L67.2393 21.1012ZM67.1928 21.1004L67.2393 21.1012L67.2754 19.1015L67.2289 19.1007L67.1928 21.1004ZM65.9805 19.3407C66.0967 19.5839 66.179 19.8708 66.217 20.2114L68.2047 19.9897C68.1449 19.4534 68.0086 18.9464 67.7852 18.4788L65.9805 19.3407ZM65.5336 18.7391C65.7174 18.9036 65.8661 19.1011 65.9805 19.3407L67.7852 18.4788C67.5602 18.0076 67.2539 17.5946 66.8673 17.2486L65.5336 18.7391ZM64.8504 18.3485C65.133 18.4471 65.3556 18.5798 65.5337 18.7391L66.8673 17.2486C66.4749 16.8976 66.017 16.6372 65.509 16.4601L64.8504 18.3485ZM63.8616 18.1761C64.2434 18.183 64.564 18.2432 64.8342 18.3427L65.5252 16.4659C65.0163 16.2785 64.4702 16.1867 63.8977 16.1764L63.8616 18.1761ZM62.2233 18.5972C62.6539 18.3174 63.1852 18.1638 63.8616 18.1761L63.8977 16.1764C62.8811 16.158 61.9449 16.3928 61.1335 16.9202L62.2233 18.5972ZM61.1546 19.9354C61.4328 19.3056 61.7966 18.8772 62.227 18.5948L61.1298 16.9226C60.3295 17.4477 59.7343 18.201 59.3252 19.1273L61.1546 19.9354ZM60.7026 22.3867C60.721 21.3653 60.8848 20.5565 61.1571 19.9297L59.3227 19.1329C58.919 20.0623 58.7247 21.1451 58.7029 22.3506L60.7026 22.3867ZM61.073 24.9211C60.8215 24.2909 60.6832 23.4579 60.7026 22.3867L58.7029 22.3506C58.6804 23.5972 58.8365 24.713 59.2156 25.6626L61.073 24.9211ZM62.0845 26.2568C61.6765 25.9767 61.3302 25.5491 61.0697 24.913L59.2189 25.6708C59.6007 26.6034 60.1704 27.3686 60.9524 27.9056L62.0845 26.2568ZM63.1367 26.66C62.7249 26.5913 62.376 26.4523 62.0755 26.2507L60.9614 27.9117C61.5146 28.2828 62.1349 28.5205 62.8077 28.6327L63.1367 26.66ZM63.8417 28.1402L68.1269 20.5952L66.3878 19.6075L62.1026 27.1525L63.8417 28.1402ZM72.9996 13.8803L72.6842 31.332L74.6839 31.3681L74.9993 13.9164L72.9996 13.8803ZM78.2356 12.9747L74.0175 12.8985L73.9814 14.8982L78.1995 14.9744L78.2356 12.9747ZM78.9639 28.0187L79.2174 13.9926L77.2177 13.9565L76.9642 27.9826L78.9639 28.0187ZM84.0541 27.1106L77.9821 27.0008L77.946 29.0005L84.0179 29.1102L84.0541 27.1106ZM83.8433 27.1292C81.0007 27.6875 78.1833 28.7917 75.5759 30.5679L76.7019 32.2208C79.0704 30.6073 81.6323 29.6016 84.2287 29.0917L83.8433 27.1292ZM73.666 32.3499L76.1208 32.3942L76.157 30.3946L73.7021 30.3502L73.666 32.3499ZM72.2929 33.2929C65.148 40.4378 60.842 43.1418 58.3778 44.0633L59.0784 45.9366C61.9518 44.862 66.5041 41.91 73.7071 34.7071L72.2929 33.2929ZM75.5759 30.5679C74.4343 31.3456 73.335 32.2508 72.2929 33.2929L73.7071 34.7071C74.661 33.7532 75.6638 32.928 76.7019 32.2208L75.5759 30.5679ZM76.1208 32.3942L85.1442 32.5573L85.1804 30.5576L76.157 30.3946L76.1208 32.3942ZM86.1621 31.5755L86.224 28.15L84.2244 28.1138L84.1625 31.5394L86.1621 31.5755ZM85.2423 27.132L84.0541 27.1106L84.0179 29.1102L85.2061 29.1317L85.2423 27.132ZM88.2064 26.6836C86.7621 26.7004 85.2996 26.8431 83.8433 27.1292L84.2287 29.0917C85.5602 28.8302 86.9012 28.6989 88.2298 28.6834L88.2064 26.6836ZM87.2765 27.3467L85.8802 31.2507L87.7634 31.9242L89.1597 28.0203L87.2765 27.3467ZM86.8038 32.5873L91.3371 32.6692L91.3733 30.6695L86.8399 30.5876L86.8038 32.5873ZM92.3039 31.9856L93.5182 28.3421L91.6208 27.7098L90.4065 31.3532L92.3039 31.9856ZM92.5514 29.0258L92.5674 29.0261L92.6035 27.0264L92.5875 27.0261L92.5514 29.0258ZM99.6206 29.2259C97.5496 28.2144 95.215 27.4554 92.7516 27.0402L92.4192 29.0123C94.696 29.3961 96.8467 30.0969 98.7428 31.023L99.6206 29.2259ZM98.2224 30.4067L98.7212 32.1021L100.64 31.5376L100.141 29.8422L98.2224 30.4067ZM99.6625 32.8197L102.095 32.8636L102.131 30.864L99.6986 30.82L99.6625 32.8197ZM105.74 45.6727C107.989 43.1991 108.6 40.4455 107.885 37.8063C107.186 35.227 105.259 32.8894 102.696 31.0512L101.53 32.6764C103.861 34.3483 105.415 36.3383 105.954 38.3293C106.478 40.2603 106.085 42.3198 104.26 44.3273L105.74 45.6727ZM58.7281 46H105V44H58.7281V46ZM55 45C54.2 45.6 54.2006 45.6008 54.2013 45.6017C54.2015 45.602 54.2022 45.6029 54.2026 45.6035C54.2035 45.6046 54.2044 45.6058 54.2053 45.607C54.2072 45.6095 54.2091 45.612 54.2111 45.6145C54.2151 45.6196 54.2193 45.625 54.2239 45.6307C54.233 45.642 54.2432 45.6543 54.2547 45.6675C54.2776 45.6939 54.3054 45.7239 54.3384 45.7564C54.4044 45.8216 54.4911 45.8967 54.6013 45.9735C54.8238 46.1286 55.1315 46.2831 55.5392 46.3808C56.3555 46.5763 57.4966 46.5282 59.0784 45.9366L58.3778 44.0633C57.0481 44.5606 56.3252 44.5125 56.0052 44.4358C55.8449 44.3974 55.7664 44.3477 55.7449 44.3327C55.733 44.3244 55.7331 44.323 55.7432 44.3328C55.7481 44.3377 55.7555 44.3454 55.765 44.3564C55.7698 44.3619 55.7751 44.3682 55.781 44.3755C55.7839 44.3791 55.7869 44.3829 55.7901 44.387C55.7917 44.3891 55.7933 44.3912 55.7949 44.3933C55.7958 44.3944 55.7966 44.3955 55.7974 44.3966C55.7979 44.3972 55.7985 44.398 55.7987 44.3983C55.7993 44.3991 55.8 44.4 55 45ZM58.7281 44H55V46H58.7281V44ZM123.323 27.4699C121.088 27.8154 119.321 28.9631 117.812 30.4433C116.321 31.9063 115.024 33.7528 113.756 35.554L115.392 36.7054C116.685 34.8682 117.876 33.1825 119.213 31.8711C120.532 30.5769 121.936 29.7081 123.629 29.4465L123.323 27.4699ZM113.756 35.554C111.201 39.1838 108.71 42.6672 104.675 44.0543L105.325 45.9457C110.073 44.3135 112.909 40.231 115.392 36.7054L113.756 35.554ZM105 46H137V44H105V46ZM137 45C136.768 45.9728 136.769 45.9729 136.769 45.973C136.769 45.973 136.77 45.9731 136.77 45.9732C136.771 45.9735 136.772 45.9738 136.774 45.9741C136.777 45.9749 136.782 45.9759 136.787 45.9773C136.799 45.9799 136.815 45.9837 136.836 45.9885C136.878 45.9981 136.938 46.0118 137.016 46.0289C137.171 46.0629 137.393 46.1103 137.667 46.1646C138.215 46.2729 138.975 46.4096 139.821 46.5225C141.457 46.7406 143.615 46.8999 145.15 46.4615C145.92 46.2413 146.771 45.8013 147.15 44.8989C147.531 43.994 147.286 42.9826 146.735 41.985C145.637 39.9997 142.852 37.2014 137.606 33.2046L136.394 34.7954C141.648 38.7986 144.113 41.3752 144.984 42.9524C145.417 43.7361 145.337 44.0529 145.307 44.1245C145.275 44.1986 145.142 44.3837 144.6 44.5384C143.51 44.8501 141.73 44.7594 140.085 44.54C139.291 44.4341 138.574 44.3052 138.055 44.2026C137.796 44.1514 137.588 44.107 137.446 44.0756C137.374 44.0599 137.32 44.0475 137.283 44.0392C137.265 44.035 137.252 44.0319 137.243 44.0298C137.239 44.0288 137.235 44.0281 137.234 44.0276C137.233 44.0274 137.232 44.0272 137.232 44.0272C137.231 44.0271 137.231 44.0271 137.231 44.0271C137.231 44.0271 137.232 44.0272 137 45ZM137.606 33.2046C136.609 32.4447 135.658 31.7681 134.75 31.1697L133.649 32.8396C134.515 33.4102 135.429 34.0599 136.394 34.7954L137.606 33.2046ZM134.57 32.9337C135.725 32.4735 136.667 31.785 137.347 30.8481L135.728 29.6741C135.303 30.2601 134.687 30.734 133.83 31.0757L134.57 32.9337ZM137.347 30.8481C138.048 29.8812 138.394 28.7364 138.423 27.4618L136.424 27.4154C136.402 28.3448 136.157 29.0817 135.728 29.6741L137.347 30.8481ZM138.423 27.4486C138.432 26.64 138.307 25.8772 138.03 25.1745L136.169 25.9063C136.338 26.3369 136.429 26.8396 136.424 27.4287L138.423 27.4486ZM138.03 25.1745C137.755 24.4737 137.341 23.8533 136.797 23.3181L135.394 24.743C135.744 25.0877 135.999 25.4739 136.169 25.9063L138.03 25.1745ZM136.802 23.3225C136.271 22.7932 135.627 22.3511 134.887 21.9869L134.004 23.7812C134.582 24.0659 135.038 24.3882 135.389 24.7385L136.802 23.3225ZM134.89 21.9884C134.156 21.6238 133.325 21.3368 132.405 21.1197L131.946 23.0662C132.747 23.2552 133.429 23.4956 134.001 23.7798L134.89 21.9884ZM132.415 21.1219L130.921 20.754L130.443 22.6959L131.936 23.0639L132.415 21.1219ZM130.909 20.7511C130.547 20.6668 130.235 20.5729 129.967 20.4718L129.26 22.3428C129.625 22.4805 130.024 22.5984 130.455 22.6988L130.909 20.7511ZM129.967 20.4718C129.707 20.3735 129.509 20.2711 129.363 20.1721L128.243 21.829C128.545 22.0336 128.888 22.2024 129.26 22.3428L129.967 20.4718ZM129.387 20.1888C129.265 20.101 129.202 20.0235 129.168 19.9641L127.434 20.9619C127.631 21.3045 127.903 21.5853 128.219 21.8123L129.387 20.1888ZM129.178 19.9826C129.171 19.9699 129.152 19.9316 129.158 19.8315L127.162 19.7085C127.136 20.1306 127.211 20.5543 127.424 20.9433L129.178 19.9826ZM129.159 19.8059C129.164 19.6867 129.195 19.6107 129.248 19.5429L127.665 18.32C127.345 18.7342 127.179 19.2172 127.161 19.7341L129.159 19.8059ZM129.254 19.5341C129.299 19.4755 129.398 19.3826 129.632 19.2961L128.938 17.4204C128.44 17.6048 127.987 17.8941 127.658 18.3288L129.254 19.5341ZM129.632 19.2961C129.845 19.2174 130.168 19.1613 130.634 19.1697L130.67 17.17C130.046 17.1588 129.458 17.2283 128.938 17.4204L129.632 19.2961ZM130.634 19.1697C131.332 19.1823 131.708 19.3402 131.907 19.504L133.179 17.9611C132.504 17.4044 131.621 17.1872 130.67 17.17L130.634 19.1697ZM131.918 19.5129C132.119 19.674 132.25 19.8945 132.278 20.2759L134.273 20.1309C134.209 19.2604 133.852 18.5004 133.168 17.9522L131.918 19.5129ZM133.257 21.2032L137.296 21.2762L137.332 19.2765L133.293 19.2035L133.257 21.2032ZM138.314 20.284C138.324 19.0235 138.015 17.8697 137.364 16.8571L135.681 17.9389C136.102 18.5936 136.321 19.3587 136.314 20.2688L138.314 20.284ZM137.364 16.8571C136.716 15.8503 135.802 15.0795 134.661 14.5359L133.801 16.3414C134.643 16.7428 135.257 17.2783 135.681 17.9389L137.364 16.8571ZM134.667 14.5389C133.524 13.9844 132.206 13.7114 130.742 13.685L130.706 15.6846C131.946 15.707 132.966 15.9366 133.794 16.3384L134.667 14.5389ZM130.742 13.685C129.303 13.659 127.979 13.8824 126.789 14.38L127.561 16.2252C128.455 15.8512 129.497 15.6628 130.706 15.6846L130.742 13.685ZM126.789 14.38C125.604 14.8757 124.632 15.5976 123.912 16.5599L125.513 17.758C125.993 17.1168 126.662 16.6011 127.561 16.2252L126.789 14.38ZM123.912 16.5599C123.175 17.5446 122.808 18.6945 122.792 19.9681L124.792 19.9937C124.803 19.1083 125.05 18.3769 125.513 17.758L123.912 16.5599ZM122.792 19.9585C122.757 21.5251 123.256 22.8742 124.35 23.89L125.711 22.4243C125.094 21.8521 124.767 21.0837 124.792 20.0032L122.792 19.9585ZM124.352 23.8924C125.365 24.8262 126.714 25.4695 128.329 25.8709L128.811 23.9299C127.417 23.5835 126.405 23.0647 125.708 22.4219L124.352 23.8924ZM128.325 25.8699L130.141 26.3289L130.631 24.3899L128.815 23.9309L128.325 25.8699ZM130.142 26.3293C130.742 26.48 131.2 26.6341 131.533 26.7846L132.357 24.9623C131.878 24.7458 131.297 24.5572 130.63 24.3896L130.142 26.3293ZM131.548 26.7914C131.872 26.9314 132.017 27.0584 132.075 27.1298L133.634 25.8774C133.302 25.4645 132.841 25.1713 132.342 24.9555L131.548 26.7914ZM132.082 27.1391C132.118 27.1822 132.146 27.2355 132.146 27.352L134.146 27.3536C134.146 26.8109 133.98 26.2981 133.627 25.8682L132.082 27.1391ZM132.147 27.3186C132.142 27.4541 132.103 27.5528 132.024 27.6494L133.569 28.9189C133.932 28.4779 134.126 27.9557 134.145 27.387L132.147 27.3186ZM132.024 27.6493C131.942 27.7489 131.795 27.8658 131.518 27.9655L132.195 29.8474C132.73 29.6549 133.21 29.357 133.569 28.9189L132.024 27.6493ZM131.513 27.9671C131.26 28.0596 130.905 28.1192 130.422 28.1105L130.385 30.1102C131.038 30.122 131.652 30.0457 132.199 29.8458L131.513 27.9671ZM130.422 28.1105C129.905 28.1012 129.494 28.0131 129.168 27.8727L128.377 29.7094C128.987 29.9723 129.664 30.0971 130.385 30.1102L130.422 28.1105ZM129.172 27.8744C128.865 27.7403 128.658 27.5642 128.514 27.3538L126.864 28.4843C127.24 29.0334 127.756 29.4386 128.373 29.7077L129.172 27.8744ZM128.514 27.3538C128.381 27.1599 128.279 26.8803 128.262 26.4624L126.264 26.5473C126.294 27.2555 126.476 27.9187 126.864 28.4843L128.514 27.3538ZM127.281 25.505L123.242 25.432L123.205 27.4317L127.245 27.5047L127.281 25.505ZM122.224 26.4263C122.219 27.2483 122.312 28.0196 122.514 28.7317L124.438 28.1847C124.295 27.6831 124.22 27.1035 124.223 26.4374L122.224 26.4263ZM134.75 31.1697C130.024 28.0549 126.369 26.9993 123.323 27.4699L123.629 29.4465C125.958 29.0865 129.096 29.8389 133.649 32.8396L134.75 31.1697ZM134.487 32.9662C134.515 32.9555 134.542 32.9446 134.57 32.9337L133.83 31.0757C133.809 31.084 133.788 31.0921 133.767 31.1002L134.487 32.9662ZM130.374 33.5963C131.92 33.6243 133.301 33.4263 134.489 32.9655L133.765 31.1009C132.882 31.4437 131.772 31.6213 130.41 31.5967L130.374 33.5963ZM126.195 32.7919C127.416 33.3097 128.816 33.5682 130.374 33.5963L130.41 31.5967C129.047 31.572 127.911 31.3471 126.977 30.9508L126.195 32.7919ZM123.252 30.3761C123.957 31.4608 124.951 32.2641 126.195 32.7919L126.977 30.9508C126.066 30.5645 125.398 30.0081 124.93 29.2871L123.252 30.3761ZM122.514 28.7317C122.683 29.326 122.928 29.8762 123.252 30.3761L124.93 29.2871C124.722 28.9666 124.556 28.6012 124.438 28.1847L122.514 28.7317ZM102.095 32.8636L104.196 32.9016L104.232 30.9019L102.131 30.864L102.095 32.8636ZM105.167 31.5992L99.5942 14.0411L97.6879 14.6462L103.261 32.2043L105.167 31.5992ZM98.6591 13.3438L93.0435 13.2423L93.0074 15.242L98.623 15.3435L98.6591 13.3438ZM92.0839 13.9054L87.2765 27.3467L89.1597 28.0203L93.9671 14.5789L92.0839 13.9054ZM92.7516 27.0402C91.2756 26.7913 89.7508 26.6655 88.2064 26.6836L88.2298 28.6834C89.6506 28.6668 91.0563 28.7826 92.4192 29.0123L92.7516 27.0402ZM92.5673 29.0261L98.5783 29.1347L98.6144 27.135L92.6035 27.0264L92.5673 29.0261ZM97.637 28.4171L98.2224 30.4067L100.141 29.8422L99.5557 27.8526L97.637 28.4171ZM102.696 31.0512C101.757 30.3781 100.725 29.7654 99.6206 29.2259L98.7428 31.023C99.7531 31.5165 100.688 32.0726 101.53 32.6764L102.696 31.0512ZM98.6076 24.6304L96.777 18.4088L94.8584 18.9733L96.6889 25.1949L98.6076 24.6304ZM93.6132 25.8399L97.6302 25.9125L97.6663 23.9128L93.6493 23.8402L93.6132 25.8399ZM94.7327 18.3724L92.6825 24.5239L94.5799 25.1563L96.6301 19.0048L94.7327 18.3724ZM95.8358 17.6912L95.6994 17.6888L95.6633 19.6885L95.7996 19.6909L95.8358 17.6912ZM106.075 32.9356L112.525 33.0521L112.562 31.0525L106.111 30.9359L106.075 32.9356ZM105.408 14.466L105.093 31.9177L107.093 31.9538L107.408 14.5021L105.408 14.466ZM112.868 13.6006L106.426 13.4842L106.39 15.4839L112.832 15.6003L112.868 13.6006ZM117.918 14.862C116.473 14.0415 114.778 13.6351 112.868 13.6006L112.832 15.6003C114.479 15.6301 115.833 15.9777 116.931 16.6011L117.918 14.862ZM121.243 18.3294C120.479 16.8371 119.365 15.6734 117.914 14.8594L116.935 16.6037C118.038 17.2225 118.876 18.0944 119.462 19.2406L121.243 18.3294ZM122.316 23.4917C122.351 21.5514 122.008 19.818 121.242 18.3278L119.463 19.2422C120.048 20.3791 120.347 21.7714 120.317 23.4556L122.316 23.4917ZM121.057 28.6289C121.876 27.1622 122.281 25.4372 122.316 23.4917L120.317 23.4556C120.286 25.1458 119.936 26.5327 119.31 27.654L121.057 28.6289ZM117.616 31.9834C119.094 31.2165 120.247 30.0907 121.058 28.6259L119.309 27.6569C118.687 28.7803 117.821 29.6241 116.695 30.208L117.616 31.9834ZM112.525 33.0521C114.429 33.0865 116.136 32.7447 117.613 31.985L116.698 30.2065C115.571 30.7863 114.203 31.0821 112.562 31.0525L112.525 33.0521ZM112.465 27.4535L110.394 27.4161L110.358 29.4158L112.429 29.4532L112.465 27.4535ZM114.513 27.0973C114.004 27.3343 113.334 27.4692 112.465 27.4535L112.429 29.4532C113.514 29.4728 114.503 29.3081 115.357 28.9106L114.513 27.0973ZM115.607 25.9684C115.337 26.525 114.972 26.882 114.51 27.0987L115.36 28.9092C116.274 28.4802 116.956 27.7707 117.407 26.8401L115.607 25.9684ZM116.09 23.3792C116.069 24.5559 115.886 25.3967 115.608 25.9654L117.406 26.8431C117.86 25.9134 118.066 24.7495 118.09 23.4153L116.09 23.3792ZM115.704 20.7996C115.959 21.3632 116.111 22.2013 116.09 23.3792L118.09 23.4153C118.114 22.0823 117.95 20.9143 117.527 19.9768L115.704 20.7996ZM114.637 19.6347C115.094 19.8641 115.45 20.2315 115.703 20.7969L117.528 19.9795C117.104 19.0324 116.44 18.3017 115.534 17.8472L114.637 19.6347ZM112.554 19.1924C113.448 19.2086 114.125 19.3712 114.628 19.6302L115.543 17.8517C114.695 17.4157 113.697 17.2128 112.59 17.1928L112.554 19.1924ZM110.543 19.1561L112.554 19.1924L112.59 17.1928L110.579 17.1564L110.543 19.1561ZM111.376 28.434L111.561 18.1743L109.561 18.1382L109.376 28.3979L111.376 28.434Z" fill="black" mask="url(#path-1-inside-1_1_14)"/>
</svg>
