<svg width="404" height="302" viewBox="0 0 404 302" fill="none" xmlns="http://www.w3.org/2000/svg">
<path d="M20.7771 119.424L6.74849 93.939L24.1449 84.3628L26.8986 89.3652L15.6618 95.5507L18.5388 100.777L28.668 95.2013L31.4286 100.216L21.2993 105.792L26.9368 116.033L20.7771 119.424ZM43.6052 106.858L36.9852 110.502L31.5552 80.2837L39.7556 75.7696L62.3829 96.5212L55.7628 100.165L39.2833 84.3963L39.0842 84.5059L43.6052 106.858ZM37.2007 97.3144L51.0382 89.6972L53.6138 94.3761L39.7763 101.993L37.2007 97.3144ZM68.2922 70.0168C67.7069 69.1499 66.9473 68.6438 66.0133 68.4985C65.0831 68.3404 64.0166 68.5924 62.8137 69.2545C62.0173 69.6929 61.4107 70.162 60.9939 70.6616C60.5772 71.1613 60.3365 71.6667 60.272 72.1778C60.2029 72.6807 60.292 73.1667 60.5395 73.6358C60.7329 74.0266 60.9925 74.3214 61.3183 74.5205C61.6523 74.7149 62.0428 74.8351 62.4896 74.881C62.9402 74.914 63.4434 74.8856 63.9993 74.7958C64.5552 74.706 65.1578 74.5635 65.807 74.3683L68.2711 73.6604C69.6827 73.2401 70.9953 72.9931 72.2088 72.9197C73.4306 72.8417 74.5427 72.9375 75.5451 73.2072C76.5559 73.4724 77.4573 73.922 78.2496 74.5561C79.0418 75.1901 79.7229 76.0151 80.2929 77.0309C81.1705 78.6448 81.5244 80.2499 81.3544 81.846C81.1845 83.442 80.5136 84.9626 79.3416 86.4076C78.178 87.8481 76.5343 89.1528 74.4106 90.3219C72.2786 91.4955 70.2445 92.199 68.3083 92.4325C66.3722 92.6659 64.606 92.3734 63.0097 91.555C61.4133 90.7367 60.0547 89.3388 58.9339 87.3615L64.8322 84.1146C65.3341 84.9085 65.9307 85.4719 66.622 85.8048C67.3133 86.1377 68.0767 86.258 68.9122 86.1656C69.756 86.0686 70.6301 85.7712 71.5343 85.2735C72.3639 84.8168 73.0074 84.3166 73.4648 83.773C73.9305 83.2248 74.2114 82.6648 74.3074 82.0931C74.4035 81.5213 74.3141 80.976 74.0393 80.4571C73.7661 79.9805 73.3907 79.6521 72.9131 79.4718C72.431 79.2832 71.8186 79.2311 71.076 79.3156C70.3371 79.3872 69.4438 79.5709 68.3959 79.8667L65.3904 80.7104C62.9052 81.4191 60.7174 81.5586 58.8271 81.1291C56.9322 80.6912 55.4569 79.5036 54.4011 77.5661C53.5252 75.9944 53.1879 74.3803 53.3894 72.7236C53.5908 71.0669 54.2638 69.4912 55.4083 67.9964C56.5528 66.5016 58.0916 65.2222 60.0245 64.1582C61.9989 63.0713 63.897 62.4643 65.7186 62.3371C67.544 62.1971 69.1902 62.507 70.657 63.2669C72.1239 64.0269 73.3017 65.1945 74.1905 66.7699L68.2922 70.0168ZM87.4727 82.71L73.444 57.2251L79.6037 53.8344L85.2343 64.0632L95.2765 58.5353L89.6458 48.3065L95.7931 44.9227L109.822 70.4075L103.674 73.7914L98.037 63.5502L87.9949 69.0781L93.6324 79.3193L87.4727 82.71ZM105.817 39.4051L119.845 64.8899L113.686 68.2806L99.6569 42.7958L105.817 39.4051ZM140.752 36.778C142.295 39.582 143.064 42.2556 143.059 44.7988C143.054 47.342 142.409 49.6265 141.124 51.6524C139.848 53.6737 138.069 55.3123 135.788 56.5681C133.498 57.8285 131.156 58.4531 128.761 58.4419C126.366 58.4307 124.094 57.7514 121.947 56.4038C119.804 55.0434 117.963 52.9653 116.424 50.1696C114.88 47.3656 114.107 44.6943 114.104 42.1557C114.11 39.6125 114.75 37.3302 116.027 35.3089C117.303 33.2876 119.086 31.6467 121.375 30.3864C123.657 29.1305 125.993 28.5041 128.383 28.5069C130.782 28.5052 133.057 29.1823 135.209 30.5382C137.361 31.8941 139.208 33.974 140.752 36.778ZM134.455 40.2441C133.542 38.5849 132.534 37.313 131.43 36.4285C130.336 35.5394 129.187 35.0424 127.983 34.9374C126.788 34.8279 125.576 35.1111 124.348 35.787C123.129 36.4583 122.242 37.3304 121.686 38.4035C121.131 39.4766 120.932 40.7157 121.09 42.1208C121.255 43.5213 121.795 45.0512 122.708 46.7104C123.621 48.3696 124.625 49.6437 125.72 50.5328C126.823 51.4173 127.977 51.9121 129.18 52.017C130.384 52.1219 131.595 51.8388 132.815 51.1675C134.043 50.4916 134.93 49.6194 135.477 48.5509C136.032 47.4779 136.227 46.2411 136.061 44.8405C135.904 43.4354 135.368 41.9032 134.455 40.2441ZM159.023 10.1165L173.052 35.6014L167.825 38.4783L149.587 29.3525L149.425 29.4415L157.522 44.1501L151.362 47.5408L137.334 22.0559L142.635 19.1379L160.747 28.3005L160.959 28.184L152.876 13.5004L159.023 10.1165Z" fill="#DFDFDF"/>
<path d="M20.7771 119.424L19.9011 119.906L20.3833 120.782L21.2594 120.3L20.7771 119.424ZM6.74849 93.939L6.26626 93.063L5.39021 93.5452L5.87245 94.4213L6.74849 93.939ZM24.1449 84.3628L25.0209 83.8806L24.5387 83.0046L23.6627 83.4868L24.1449 84.3628ZM26.8986 89.3652L27.3808 90.2413L28.2568 89.759L27.7746 88.883L26.8986 89.3652ZM15.6618 95.5507L15.1796 94.6747L14.3036 95.1569L14.7858 96.0329L15.6618 95.5507ZM18.5388 100.777L17.6628 101.259L18.145 102.135L19.021 101.653L18.5388 100.777ZM28.668 95.2013L29.5441 94.719L29.0618 93.843L28.1858 94.3252L28.668 95.2013ZM31.4286 100.216L31.9108 101.092L32.7868 100.61L32.3046 99.7339L31.4286 100.216ZM21.2993 105.792L20.8171 104.916L19.941 105.398L20.4233 106.274L21.2993 105.792ZM26.9368 116.033L27.419 116.909L28.2951 116.427L27.8128 115.551L26.9368 116.033ZM21.6532 118.942L7.62453 93.4568L5.87245 94.4213L19.9011 119.906L21.6532 118.942ZM7.23072 94.8151L24.6271 85.2389L23.6627 83.4868L6.26626 93.063L7.23072 94.8151ZM23.2689 84.8451L26.0225 89.8475L27.7746 88.883L25.0209 83.8806L23.2689 84.8451ZM26.4163 88.4892L15.1796 94.6747L16.1441 96.4267L27.3808 90.2413L26.4163 88.4892ZM14.7858 96.0329L17.6628 101.259L19.4148 100.295L16.5379 95.0685L14.7858 96.0329ZM19.021 101.653L29.1503 96.0773L28.1858 94.3252L18.0566 99.9011L19.021 101.653ZM27.792 95.6835L30.5525 100.698L32.3046 99.7339L29.5441 94.719L27.792 95.6835ZM30.9463 99.3401L20.8171 104.916L21.7816 106.668L31.9108 101.092L30.9463 99.3401ZM20.4233 106.274L26.0608 116.515L27.8128 115.551L22.1754 105.31L20.4233 106.274ZM26.4546 115.157L20.2949 118.548L21.2594 120.3L27.419 116.909L26.4546 115.157ZM43.6052 106.858L44.0875 107.734L44.731 107.379L44.5854 106.659L43.6052 106.858ZM36.9852 110.502L36.0009 110.679L36.2472 112.05L37.4674 111.378L36.9852 110.502ZM31.5552 80.2837L31.0729 79.4077L30.4439 79.7539L30.5709 80.4606L31.5552 80.2837ZM39.7556 75.7696L40.4315 75.0326L39.9024 74.5473L39.2734 74.8936L39.7556 75.7696ZM62.3829 96.5212L62.8651 97.3972L64.0853 96.7256L63.0588 95.7842L62.3829 96.5212ZM55.7628 100.165L55.0715 100.888L55.6019 101.395L56.2451 101.041L55.7628 100.165ZM39.2833 84.3963L39.9746 83.6738L39.4442 83.1662L38.801 83.5202L39.2833 84.3963ZM39.0842 84.5059L38.6019 83.6298L37.9584 83.9841L38.104 84.7041L39.0842 84.5059ZM37.2007 97.3144L36.7185 96.4383L35.8424 96.9205L36.3247 97.7966L37.2007 97.3144ZM51.0382 89.6972L51.9142 89.215L51.432 88.339L50.5559 88.8212L51.0382 89.6972ZM53.6138 94.3761L54.096 95.2521L54.972 94.7699L54.4898 93.8939L53.6138 94.3761ZM39.7763 101.993L38.9002 102.475L39.3825 103.351L40.2585 102.869L39.7763 101.993ZM43.123 105.982L36.5029 109.626L37.4674 111.378L44.0875 107.734L43.123 105.982ZM37.9694 110.325L32.5394 80.1068L30.5709 80.4606L36.0009 110.679L37.9694 110.325ZM32.0374 81.1597L40.2379 76.6456L39.2734 74.8936L31.0729 79.4077L32.0374 81.1597ZM39.0797 76.5066L61.707 97.2582L63.0588 95.7842L40.4315 75.0326L39.0797 76.5066ZM61.9007 95.6451L55.2806 99.2893L56.2451 101.041L62.8651 97.3972L61.9007 95.6451ZM56.4542 99.4428L39.9746 83.6738L38.5919 85.1188L55.0715 100.888L56.4542 99.4428ZM38.801 83.5202L38.6019 83.6298L39.5664 85.3819L39.7655 85.2723L38.801 83.5202ZM38.104 84.7041L42.6251 107.056L44.5854 106.659L40.0643 84.3076L38.104 84.7041ZM37.6829 98.1904L51.5204 90.5733L50.5559 88.8212L36.7185 96.4383L37.6829 98.1904ZM50.1621 90.1795L52.7377 94.8583L54.4898 93.8939L51.9142 89.215L50.1621 90.1795ZM53.1315 93.5001L39.294 101.117L40.2585 102.869L54.096 95.2521L53.1315 93.5001ZM40.6523 101.511L38.0767 96.8321L36.3247 97.7966L38.9002 102.475L40.6523 101.511ZM68.2922 70.0168L67.4634 70.5763L67.9744 71.3332L68.7744 70.8928L68.2922 70.0168ZM66.0133 68.4985L65.8457 69.4845L65.8596 69.4866L66.0133 68.4985ZM60.9939 70.6616L60.226 70.0211L60.226 70.0211L60.9939 70.6616ZM60.272 72.1778L61.2627 72.314L61.2641 72.3031L60.272 72.1778ZM60.5395 73.6358L61.4356 73.1921L61.4299 73.1806L61.424 73.1693L60.5395 73.6358ZM61.3183 74.5205L60.7969 75.3738L60.806 75.3794L60.8152 75.3847L61.3183 74.5205ZM62.4896 74.881L62.3875 75.8758L62.402 75.8772L62.4165 75.8783L62.4896 74.881ZM63.9993 74.7958L63.8398 73.8086L63.8398 73.8086L63.9993 74.7958ZM65.807 74.3683L65.5309 73.407L65.519 73.4106L65.807 74.3683ZM68.2711 73.6604L68.5472 74.6216L68.5565 74.6188L68.2711 73.6604ZM72.2088 72.9197L72.2692 73.9179L72.2725 73.9177L72.2088 72.9197ZM75.5451 73.2072L75.2853 74.1729L75.2914 74.1745L75.5451 73.2072ZM78.2496 74.5561L77.6247 75.3368L77.6247 75.3368L78.2496 74.5561ZM80.2929 77.0309L81.1715 76.5531L81.165 76.5415L80.2929 77.0309ZM81.3544 81.846L80.36 81.7401L80.36 81.7401L81.3544 81.846ZM79.3416 86.4076L78.565 85.7777L78.5637 85.7792L79.3416 86.4076ZM68.3083 92.4325L68.1886 91.4397L68.1886 91.4397L68.3083 92.4325ZM63.0097 91.555L62.5534 92.4449L63.0097 91.555ZM58.9339 87.3615L58.4516 86.4855L57.5646 86.9738L58.0639 87.8546L58.9339 87.3615ZM64.8322 84.1146L65.6775 83.5803L65.1745 82.7847L64.35 83.2386L64.8322 84.1146ZM66.622 85.8048L66.1881 86.7058L66.1881 86.7058L66.622 85.8048ZM68.9122 86.1656L69.0221 87.1595L69.0264 87.159L68.9122 86.1656ZM73.4648 83.773L72.7027 83.1256L72.6996 83.1292L73.4648 83.773ZM74.3074 82.0931L73.3213 81.9274L73.3213 81.9274L74.3074 82.0931ZM74.0393 80.4571L74.923 79.9891L74.9152 79.9743L74.9069 79.9598L74.0393 80.4571ZM72.9131 79.4718L72.5488 80.4031L72.5599 80.4073L72.9131 79.4718ZM71.076 79.3156L71.1725 80.3109L71.1808 80.3101L71.1891 80.3092L71.076 79.3156ZM68.3959 79.8667L68.6662 80.8295L68.6676 80.8291L68.3959 79.8667ZM65.3904 80.7104L65.1202 79.7476L65.1162 79.7487L65.3904 80.7104ZM58.8271 81.1291L58.6019 82.1034L58.6055 82.1042L58.8271 81.1291ZM54.4011 77.5661L55.2793 77.0876L55.2746 77.0792L54.4011 77.5661ZM53.3894 72.7236L52.3967 72.6029L52.3967 72.6029L53.3894 72.7236ZM55.4083 67.9964L56.2023 68.6043L56.2023 68.6043L55.4083 67.9964ZM65.7186 62.3371L65.7883 63.3347L65.7951 63.3342L65.7186 62.3371ZM70.657 63.2669L71.117 62.379L71.117 62.379L70.657 63.2669ZM74.1905 66.7699L74.6728 67.6459L75.558 67.1586L75.0615 66.2785L74.1905 66.7699ZM69.121 69.4572C68.3985 68.3871 67.4067 67.7033 66.1671 67.5104L65.8596 69.4866C66.4878 69.5844 67.0153 69.9127 67.4634 70.5763L69.121 69.4572ZM66.1809 67.5127C64.9464 67.3028 63.645 67.6554 62.3314 68.3785L63.2959 70.1306C64.3881 69.5294 65.2199 69.378 65.8457 69.4844L66.1809 67.5127ZM62.3314 68.3785C61.4661 68.8548 60.7474 69.396 60.226 70.0211L61.7619 71.3022C62.074 70.9279 62.5684 70.5311 63.2959 70.1306L62.3314 68.3785ZM60.226 70.0211C59.7188 70.6292 59.3739 71.3076 59.2798 72.0526L61.2641 72.3031C61.2991 72.0257 61.4355 71.6934 61.7619 71.3022L60.226 70.0211ZM59.2813 72.0417C59.1824 72.7613 59.3147 73.4572 59.655 74.1023L61.424 73.1693C61.2694 72.8762 61.2233 72.6001 61.2627 72.314L59.2813 72.0417ZM59.6433 74.0795C59.9083 74.6148 60.2881 75.0629 60.7969 75.3738L61.8397 73.6671C61.697 73.5799 61.5575 73.4383 61.4356 73.1921L59.6433 74.0795ZM60.8152 75.3847C61.2904 75.6614 61.822 75.8177 62.3875 75.8758L62.5918 73.8862C62.2636 73.8525 62.0142 73.7685 61.8214 73.6562L60.8152 75.3847ZM62.4165 75.8783C62.961 75.9182 63.544 75.8823 64.1588 75.783L63.8398 73.8086C63.3428 73.8889 62.9194 73.9098 62.5627 73.8837L62.4165 75.8783ZM64.1588 75.783C64.7658 75.6849 65.4118 75.5313 66.095 75.3259L65.519 73.4106C64.9037 73.5956 64.3446 73.7271 63.8398 73.8086L64.1588 75.783ZM66.0831 75.3294L68.5472 74.6215L67.995 72.6993L65.5309 73.4071L66.0831 75.3294ZM68.5565 74.6188C69.9097 74.2159 71.146 73.9859 72.2692 73.9179L72.1484 71.9215C70.8446 72.0004 69.4558 72.2643 67.9857 72.702L68.5565 74.6188ZM72.2725 73.9177C73.4045 73.8454 74.4052 73.9361 75.2853 74.1729L75.805 72.2416C74.6802 71.9389 73.4567 71.838 72.1451 71.9217L72.2725 73.9177ZM75.2914 74.1745C76.1708 74.4052 76.945 74.7928 77.6247 75.3368L78.8744 73.7753C77.9696 73.0512 76.9409 72.5396 75.7989 72.24L75.2914 74.1745ZM77.6247 75.3368C78.3028 75.8795 78.9045 76.6001 79.4208 77.5202L81.165 76.5415C80.5413 75.43 79.7808 74.5007 78.8744 73.7753L77.6247 75.3368ZM79.4144 77.5086C80.2095 78.9709 80.5055 80.374 80.36 81.7401L82.3488 81.9518C82.5432 80.1258 82.1315 78.3188 81.1714 76.5532L79.4144 77.5086ZM80.36 81.7401C80.2136 83.1151 79.635 84.4583 78.565 85.7777L80.1183 87.0375C81.3921 85.4669 82.1553 83.769 82.3488 81.9518L80.36 81.7401ZM78.5637 85.7792C77.5026 87.0928 75.9718 88.321 73.9284 89.4458L74.8928 91.1979C77.0969 89.9847 78.8534 88.6034 80.1195 87.036L78.5637 85.7792ZM73.9284 89.4458C71.8817 90.5724 69.9703 91.2248 68.1886 91.4397L68.428 93.4253C70.5186 93.1732 72.6754 92.4185 74.8928 91.1979L73.9284 89.4458ZM68.1886 91.4397C66.4324 91.6514 64.8693 91.3846 63.4659 90.6652L62.5534 92.4449C64.3427 93.3622 66.312 93.6804 68.428 93.4253L68.1886 91.4397ZM63.4659 90.6652C62.0843 89.9569 60.854 88.721 59.8038 86.8684L58.0639 87.8546C59.2554 89.9566 60.7424 91.5164 62.5534 92.4449L63.4659 90.6652ZM59.4161 88.2375L65.3145 84.9907L64.35 83.2386L58.4516 86.4855L59.4161 88.2375ZM63.987 84.649C64.5664 85.5657 65.2938 86.2751 66.1881 86.7058L67.0558 84.9038C66.5676 84.6687 66.1017 84.2514 65.6775 83.5803L63.987 84.649ZM66.1881 86.7058C67.0644 87.1278 68.0187 87.2705 69.0221 87.1595L68.8023 85.1716C68.1347 85.2454 67.5622 85.1477 67.0558 84.9038L66.1881 86.7058ZM69.0264 87.159C70.0239 87.0444 71.0223 86.6968 72.0166 86.1495L71.0521 84.3974C70.2379 84.8456 69.4881 85.0928 68.798 85.1721L69.0264 87.159ZM72.0166 86.1495C72.9201 85.6521 73.6718 85.0802 74.23 84.4168L72.6996 83.1292C72.343 83.5531 71.8077 83.9815 71.0521 84.3974L72.0166 86.1495ZM74.2269 84.4204C74.7815 83.7676 75.1613 83.0465 75.2936 82.2587L73.3213 81.9274C73.2615 82.2831 73.0796 82.6819 72.7027 83.1256L74.2269 84.4204ZM75.2936 82.2587C75.4266 81.4672 75.2992 80.6995 74.923 79.9891L73.1556 80.9251C73.3289 81.2525 73.3804 81.5754 73.3213 81.9274L75.2936 82.2587ZM74.9069 79.9598C74.5277 79.2983 73.9782 78.8049 73.2663 78.5362L72.5599 80.4073C72.8033 80.4992 73.0045 80.6627 73.1717 80.9544L74.9069 79.9598ZM73.2774 78.5405C72.5913 78.2721 71.8004 78.2267 70.963 78.322L71.1891 80.3092C71.8368 80.2355 72.2707 80.2942 72.5489 80.4031L73.2774 78.5405ZM70.9795 78.3203C70.161 78.3996 69.2056 78.5991 68.1243 78.9043L68.6676 80.8291C69.682 80.5428 70.5133 80.3748 71.1725 80.3109L70.9795 78.3203ZM68.1256 78.9039L65.1202 79.7476L65.6607 81.6732L68.6662 80.8295L68.1256 78.9039ZM65.1162 79.7487C62.7407 80.4261 60.7297 80.5359 59.0487 80.1539L58.6055 82.1042C60.7051 82.5813 63.0697 82.412 65.6647 81.6721L65.1162 79.7487ZM59.0522 80.1548C57.4749 79.7903 56.2186 78.8116 55.2792 77.0876L53.523 78.0445C54.6951 80.1956 56.3895 81.5922 58.6019 82.1034L59.0522 80.1548ZM55.2746 77.0792C54.4932 75.6771 54.2082 74.2742 54.3821 72.8443L52.3967 72.6029C52.1677 74.4863 52.5572 76.3117 53.5277 78.0529L55.2746 77.0792ZM54.3821 72.8443C54.5593 71.3867 55.1521 69.9759 56.2023 68.6043L54.6143 67.3885C53.3755 69.0065 52.6224 70.7472 52.3967 72.6029L54.3821 72.8443ZM56.2023 68.6043C57.2494 67.2368 58.6745 66.0428 60.5067 65.0342L59.5423 63.2821C57.5086 64.4016 55.8563 65.7664 54.6143 67.3885L56.2023 68.6043ZM60.5067 65.0342C62.3831 64.0013 64.1411 63.4497 65.7883 63.3347L65.649 61.3395C63.6528 61.4789 61.6147 62.1413 59.5423 63.2821L60.5067 65.0342ZM65.7951 63.3342C67.4557 63.2068 68.9129 63.4896 70.197 64.1549L71.117 62.379C69.4674 61.5244 67.6323 61.1873 65.6421 61.34L65.7951 63.3342ZM70.197 64.1549C71.475 64.8169 72.5169 65.8385 73.3196 67.2613L75.0615 66.2785C74.0866 64.5506 72.7728 63.2368 71.117 62.379L70.197 64.1549ZM73.7083 65.8939L67.8099 69.1407L68.7744 70.8928L74.6728 67.6459L73.7083 65.8939ZM87.4727 82.71L86.5966 83.1922L87.0789 84.0683L87.9549 83.5861L87.4727 82.71ZM73.444 57.2251L72.9618 56.3491L72.0858 56.8313L72.568 57.7074L73.444 57.2251ZM79.6037 53.8344L80.4798 53.3522L79.9975 52.4762L79.1215 52.9584L79.6037 53.8344ZM85.2343 64.0632L84.3583 64.5455L84.8405 65.4215L85.7166 64.9393L85.2343 64.0632ZM95.2765 58.5353L95.7587 59.4114L96.6348 58.9291L96.1525 58.0531L95.2765 58.5353ZM89.6458 48.3065L89.1636 47.4305L88.2876 47.9127L88.7698 48.7888L89.6458 48.3065ZM95.7931 44.9227L96.6691 44.4405L96.1869 43.5644L95.3108 44.0466L95.7931 44.9227ZM109.822 70.4075L110.304 71.2836L111.18 70.8014L110.698 69.9253L109.822 70.4075ZM103.674 73.7914L102.798 74.2736L103.281 75.1497L104.157 74.6675L103.674 73.7914ZM98.037 63.5502L98.913 63.0679L98.4308 62.1919L97.5548 62.6741L98.037 63.5502ZM87.9949 69.0781L87.5126 68.202L86.6366 68.6843L87.1188 69.5603L87.9949 69.0781ZM93.6324 79.3193L94.1146 80.1953L94.9906 79.7131L94.5084 78.8371L93.6324 79.3193ZM88.3487 82.2278L74.3201 56.7429L72.568 57.7074L86.5966 83.1922L88.3487 82.2278ZM73.9263 58.1012L80.0859 54.7105L79.1215 52.9584L72.9618 56.3491L73.9263 58.1012ZM78.7277 54.3167L84.3583 64.5455L86.1104 63.581L80.4798 53.3522L78.7277 54.3167ZM85.7166 64.9393L95.7587 59.4114L94.7942 57.6593L84.7521 63.1872L85.7166 64.9393ZM96.1525 58.0531L90.5219 47.8243L88.7698 48.7888L94.4004 59.0176L96.1525 58.0531ZM90.1281 49.1826L96.2753 45.7987L95.3108 44.0466L89.1636 47.4305L90.1281 49.1826ZM94.917 45.4049L108.946 70.8898L110.698 69.9253L96.6691 44.4405L94.917 45.4049ZM109.339 69.5315L103.192 72.9154L104.157 74.6675L110.304 71.2836L109.339 69.5315ZM104.551 73.3092L98.913 63.0679L97.161 64.0324L102.798 74.2736L104.551 73.3092ZM97.5548 62.6741L87.5126 68.202L88.4771 69.9541L98.5192 64.4262L97.5548 62.6741ZM87.1188 69.5603L92.7563 79.8015L94.5084 78.8371L88.8709 68.5958L87.1188 69.5603ZM93.1501 78.4433L86.9904 81.834L87.9549 83.5861L94.1146 80.1953L93.1501 78.4433ZM105.817 39.4051L106.693 38.9228L106.21 38.0468L105.334 38.529L105.817 39.4051ZM119.845 64.8899L120.327 65.766L121.203 65.2837L120.721 64.4077L119.845 64.8899ZM113.686 68.2806L112.809 68.7629L113.292 69.6389L114.168 69.1567L113.686 68.2806ZM99.6569 42.7958L99.1746 41.9197L98.2986 42.402L98.7808 43.278L99.6569 42.7958ZM104.94 39.8873L118.969 65.3722L120.721 64.4077L106.693 38.9228L104.94 39.8873ZM119.363 64.0139L113.203 67.4046L114.168 69.1567L120.327 65.766L119.363 64.0139ZM114.562 67.7984L100.533 42.3136L98.7808 43.278L112.809 68.7629L114.562 67.7984ZM100.139 43.6718L106.299 40.2811L105.334 38.529L99.1746 41.9197L100.139 43.6718ZM143.059 44.7988L142.059 44.7967L142.059 44.7967L143.059 44.7988ZM141.124 51.6524L140.28 51.1169L140.279 51.1185L141.124 51.6524ZM128.761 58.4419L128.765 57.4419L128.765 57.4419L128.761 58.4419ZM121.947 56.4038L121.411 57.2481L121.416 57.2508L121.947 56.4038ZM114.104 42.1557L113.104 42.1536L113.104 42.1568L114.104 42.1557ZM116.027 35.3089L116.872 35.8428L116.872 35.8428L116.027 35.3089ZM128.383 28.5069L128.382 29.5069L128.384 29.5069L128.383 28.5069ZM135.209 30.5382L134.676 31.3842L134.676 31.3842L135.209 30.5382ZM131.43 36.4285L130.8 37.2048L130.805 37.2086L131.43 36.4285ZM127.983 34.9374L127.892 35.9333L127.896 35.9337L127.983 34.9374ZM121.686 38.4035L122.575 38.863L122.575 38.863L121.686 38.4035ZM121.09 42.1208L120.096 42.2321L120.097 42.2382L121.09 42.1208ZM125.72 50.5328L125.09 51.309L125.095 51.3129L125.72 50.5328ZM129.18 52.017L129.267 51.0208L129.267 51.0208L129.18 52.017ZM135.477 48.5509L134.589 48.0914L134.587 48.0954L135.477 48.5509ZM136.061 44.8405L135.067 44.9518L135.068 44.9579L136.061 44.8405ZM139.876 37.2602C141.358 39.9536 142.064 42.4612 142.059 44.7967L144.059 44.8009C144.065 42.05 143.232 39.2104 141.628 36.2958L139.876 37.2602ZM142.059 44.7967C142.054 47.1628 141.457 49.2603 140.28 51.1169L141.969 52.1879C143.361 49.9927 144.053 47.5211 144.059 44.8009L142.059 44.7967ZM140.279 51.1185C139.1 52.9843 137.452 54.5102 135.305 55.692L136.27 57.4441C138.686 56.1143 140.595 54.3631 141.97 52.1863L140.279 51.1185ZM135.305 55.692C133.151 56.878 130.975 57.4522 128.765 57.4419L128.756 59.4419C131.336 59.4539 133.845 58.7789 136.27 57.4441L135.305 55.692ZM128.765 57.4419C126.568 57.4317 124.478 56.8113 122.479 55.5568L121.416 57.2508C123.711 58.6914 126.163 59.4298 128.756 59.4419L128.765 57.4419ZM122.483 55.5595C120.514 54.3095 118.778 52.3729 117.3 49.6874L115.548 50.6518C117.148 53.5577 119.094 55.7772 121.412 57.2481L122.483 55.5595ZM117.3 49.6874C115.817 46.993 115.107 44.4865 115.104 42.1545L113.104 42.1568C113.107 44.902 113.944 47.7382 115.548 50.6518L117.3 49.6874ZM115.104 42.1578C115.109 39.7903 115.703 37.6946 116.872 35.8428L115.181 34.775C113.798 36.9658 113.11 39.4347 113.104 42.1536L115.104 42.1578ZM116.872 35.8428C118.05 33.9775 119.702 32.4491 121.858 31.2624L120.893 29.5103C118.47 30.8444 116.556 32.5977 115.181 34.775L116.872 35.8428ZM121.858 31.2624C124.005 30.0806 126.175 29.5043 128.382 29.5069L128.384 27.5069C125.81 27.5038 123.309 28.1805 120.893 29.5103L121.858 31.2624ZM128.384 29.5069C130.582 29.5054 132.674 30.1227 134.676 31.3842L135.742 29.6922C133.441 28.2419 130.982 27.5051 128.383 27.5069L128.384 29.5069ZM134.676 31.3842C136.652 32.6294 138.393 34.5669 139.876 37.2602L141.628 36.2958C140.023 33.3811 138.069 31.1588 135.742 29.6922L134.676 31.3842ZM135.331 39.7618C134.375 38.0247 133.29 36.6375 132.056 35.6484L130.805 37.2086C131.777 37.9885 132.709 39.1451 133.579 40.7263L135.331 39.7618ZM132.061 35.6522C130.838 34.6588 129.504 34.0663 128.07 33.9412L127.896 35.9337C128.869 36.0185 129.834 36.42 130.8 37.2048L132.061 35.6522ZM128.074 33.9416C126.648 33.811 125.239 34.1553 123.866 34.9109L124.831 36.663C125.913 36.0669 126.927 35.8449 127.892 35.9333L128.074 33.9416ZM123.866 34.9109C122.5 35.6628 121.458 36.6693 120.798 37.944L122.575 38.863C123.025 37.9916 123.757 37.2537 124.831 36.663L123.866 34.9109ZM120.798 37.944C120.138 39.221 119.92 40.6647 120.096 42.2321L122.083 42.0095C121.944 40.7667 122.125 39.7321 122.575 38.863L120.798 37.944ZM120.097 42.2382C120.282 43.8025 120.877 45.457 121.832 47.1926L123.584 46.2281C122.713 44.6454 122.229 43.2402 122.083 42.0033L120.097 42.2382ZM121.832 47.1926C122.787 48.9282 123.867 50.316 125.09 51.309L126.351 49.7565C125.384 48.9714 124.455 47.8109 123.584 46.2281L121.832 47.1926ZM125.095 51.3129C126.325 52.2996 127.661 52.8883 129.093 53.0132L129.267 51.0208C128.292 50.9358 127.321 50.535 126.346 49.7526L125.095 51.3129ZM129.093 53.0132C130.523 53.1379 131.931 52.7954 133.297 52.0435L132.333 50.2914C131.26 50.8821 130.244 51.106 129.267 51.0208L129.093 53.0132ZM133.297 52.0435C134.67 51.2879 135.715 50.281 136.367 49.0065L134.587 48.0954C134.145 48.9578 133.416 49.6953 132.333 50.2914L133.297 52.0435ZM136.365 49.0104C137.026 47.7317 137.239 46.288 137.054 44.7231L135.068 44.9579C135.214 46.1941 135.037 47.2241 134.589 48.0914L136.365 49.0104ZM137.055 44.7292C136.879 43.1579 136.287 41.499 135.331 39.7618L133.579 40.7263C134.449 42.3075 134.929 43.7129 135.067 44.9518L137.055 44.7292ZM159.023 10.1165L159.899 9.63428L159.417 8.75824L158.541 9.24048L159.023 10.1165ZM173.052 35.6014L173.534 36.4774L174.41 35.9952L173.928 35.1191L173.052 35.6014ZM167.825 38.4783L167.378 39.3726L167.847 39.6076L168.308 39.3544L167.825 38.4783ZM149.587 29.3525L150.034 28.4582L149.565 28.2232L149.105 28.4764L149.587 29.3525ZM149.425 29.4415L148.943 28.5655L148.067 29.0477L148.549 29.9238L149.425 29.4415ZM157.522 44.1501L158.004 45.0261L158.88 44.5439L158.398 43.6678L157.522 44.1501ZM151.362 47.5408L150.486 48.023L150.968 48.8991L151.844 48.4168L151.362 47.5408ZM137.334 22.0559L136.851 21.1799L135.975 21.6621L136.457 22.5382L137.334 22.0559ZM142.635 19.1379L143.086 18.2455L142.615 18.0072L142.152 18.2618L142.635 19.1379ZM160.747 28.3005L160.296 29.1928L160.767 29.4311L161.229 29.1765L160.747 28.3005ZM160.959 28.184L161.441 29.0601L162.317 28.5778L161.835 27.7018L160.959 28.184ZM152.876 13.5004L152.394 12.6243L151.518 13.1066L152 13.9826L152.876 13.5004ZM158.147 10.5988L172.176 36.0836L173.928 35.1191L159.899 9.63428L158.147 10.5988ZM172.569 34.7253L167.343 37.6023L168.308 39.3544L173.534 36.4774L172.569 34.7253ZM168.273 37.5841L150.034 28.4582L149.14 30.2468L167.378 39.3726L168.273 37.5841ZM149.105 28.4764L148.943 28.5655L149.907 30.3176L150.069 30.2285L149.105 28.4764ZM148.549 29.9238L156.646 44.6323L158.398 43.6678L150.301 28.9593L148.549 29.9238ZM157.04 43.274L150.88 46.6648L151.844 48.4168L158.004 45.0261L157.04 43.274ZM152.238 47.0586L138.21 21.5737L136.457 22.5382L150.486 48.023L152.238 47.0586ZM137.816 22.932L143.117 20.0139L142.152 18.2618L136.851 21.1799L137.816 22.932ZM142.183 20.0302L160.296 29.1928L161.199 27.4082L143.086 18.2455L142.183 20.0302ZM161.229 29.1765L161.441 29.0601L160.476 27.308L160.265 27.4244L161.229 29.1765ZM161.835 27.7018L153.752 13.0181L152 13.9826L160.083 28.6663L161.835 27.7018ZM153.358 14.3764L159.505 10.9926L158.541 9.24048L152.394 12.6243L153.358 14.3764Z" fill="black" fill-opacity="0.4"/>
<path d="M258.407 80.7361C257.726 79.9422 256.913 79.5268 255.969 79.4899C255.027 79.4398 253.996 79.8127 252.878 80.6088C252.137 81.1359 251.588 81.6715 251.232 82.2158C250.875 82.7601 250.694 83.2898 250.689 83.805C250.678 84.3124 250.822 84.7849 251.122 85.2225C251.359 85.5884 251.651 85.8515 251.998 86.0117C252.352 86.1665 252.753 86.241 253.203 86.2352C253.654 86.2162 254.151 86.1301 254.692 85.977C255.234 85.8239 255.816 85.613 256.439 85.3444L258.805 84.358C260.159 83.7781 261.435 83.3819 262.632 83.1694C263.836 82.9514 264.952 82.9188 265.979 83.0714C267.014 83.2186 267.961 83.5616 268.821 84.1003C269.68 84.6391 270.452 85.3803 271.135 86.3238C272.192 87.8262 272.728 89.3799 272.743 90.9849C272.758 92.5899 272.266 94.1776 271.268 95.7477C270.278 97.3124 268.795 98.7975 266.82 100.203C264.837 101.614 262.897 102.547 261.001 103.001C259.104 103.456 257.316 103.368 255.636 102.739C253.956 102.109 252.446 100.877 251.105 99.0418L256.591 95.1383C257.181 95.8692 257.839 96.3602 258.564 96.6114C259.289 96.8626 260.061 96.8943 260.88 96.7065C261.707 96.5131 262.541 96.1172 263.382 95.5188C264.154 94.9698 264.735 94.3989 265.127 93.8063C265.527 93.2082 265.742 92.6196 265.771 92.0406C265.801 91.4616 265.649 90.9302 265.317 90.4464C264.991 90.0043 264.58 89.7212 264.085 89.597C263.584 89.4651 262.97 89.4838 262.242 89.6531C261.516 89.8092 260.65 90.0944 259.643 90.5087L256.754 91.6924C254.367 92.6821 252.21 93.0723 250.283 92.863C248.35 92.6459 246.748 91.6357 245.476 89.8325C244.426 88.372 243.905 86.8073 243.915 85.1385C243.924 83.4696 244.412 81.827 245.377 80.2105C246.342 78.594 247.723 77.1462 249.521 75.8669C251.357 74.5603 253.173 73.739 254.968 73.4032C256.765 73.0542 258.436 73.1728 259.98 73.7591C261.525 74.3453 262.829 75.3698 263.893 76.8325L258.407 80.7361ZM264.589 72.6413L261.279 67.9887L281.313 53.7334L284.623 58.386L277.436 63.5001L290.991 82.5504L285.343 86.5692L271.788 67.5189L264.589 72.6413ZM282.93 52.5825L289.33 48.0284L301.399 54.3812L301.608 54.2329L299.562 40.7485L305.962 36.1943L308.526 58.149L314.159 66.0654L308.465 70.1172L302.832 62.2008L282.93 52.5825ZM325.229 58.1884L308.363 34.4855L314.092 30.4091L327.648 49.4593L337.508 42.4428L340.819 47.0954L325.229 58.1884ZM343.785 44.9852L326.919 21.2823L343.446 9.52235L346.757 14.175L335.958 21.8585L339.417 26.7194L349.37 19.6371L352.689 24.3013L342.736 31.3836L346.203 36.2561L357.001 28.5726L360.312 33.2252L343.785 44.9852Z" fill="#DFDFDF"/>
<path d="M258.407 80.7361L257.648 81.3872L258.243 82.0803L258.987 81.5508L258.407 80.7361ZM255.969 79.4899L255.916 80.4886L255.93 80.4891L255.969 79.4899ZM251.232 82.2158L250.395 81.6678L250.395 81.6678L251.232 82.2158ZM250.689 83.805L251.689 83.8263L251.689 83.8153L250.689 83.805ZM251.122 85.2225L251.961 84.6787L251.954 84.6679L251.947 84.6574L251.122 85.2225ZM251.998 86.0117L251.578 86.9194L251.587 86.9238L251.597 86.9281L251.998 86.0117ZM253.203 86.2352L253.215 87.2351L253.23 87.2349L253.245 87.2343L253.203 86.2352ZM254.692 85.977L254.42 85.0147L254.42 85.0147L254.692 85.977ZM256.439 85.3444L256.054 84.4213L256.043 84.4263L256.439 85.3444ZM258.805 84.358L259.19 85.281L259.199 85.2772L258.805 84.358ZM262.632 83.1694L262.807 84.154L262.81 84.1534L262.632 83.1694ZM265.979 83.0714L265.832 84.0606L265.838 84.0615L265.979 83.0714ZM268.821 84.1003L268.29 84.9478L268.29 84.9478L268.821 84.1003ZM271.135 86.3238L271.953 85.7482L271.945 85.7375L271.135 86.3238ZM272.743 90.9849L271.743 90.9941L271.743 90.9941L272.743 90.9849ZM271.268 95.7477L270.424 95.2113L270.423 95.2129L271.268 95.7477ZM261.001 103.001L260.768 102.029L260.768 102.029L261.001 103.001ZM255.636 102.739L255.285 103.675L255.636 102.739ZM251.105 99.0418L250.526 98.227L249.701 98.814L250.298 99.6317L251.105 99.0418ZM256.591 95.1383L257.37 94.5103L256.778 93.7778L256.012 94.3235L256.591 95.1383ZM258.564 96.6114L258.236 97.5563L258.236 97.5563L258.564 96.6114ZM260.88 96.7065L261.104 97.6812L261.108 97.6802L260.88 96.7065ZM265.127 93.8063L264.296 93.2508L264.293 93.2547L265.127 93.8063ZM265.771 92.0406L264.773 91.9895L264.773 91.9895L265.771 92.0406ZM265.317 90.4464L266.141 89.8798L266.131 89.8661L266.121 89.8526L265.317 90.4464ZM264.085 89.597L263.83 90.5641L263.842 90.567L264.085 89.597ZM262.242 89.6531L262.452 90.6308L262.46 90.629L262.468 90.6271L262.242 89.6531ZM259.643 90.5087L260.022 91.4341L260.023 91.4335L259.643 90.5087ZM256.754 91.6924L256.375 90.7671L256.371 90.7686L256.754 91.6924ZM250.283 92.863L250.171 93.8567L250.175 93.8571L250.283 92.863ZM245.476 89.8325L246.294 89.2562L246.288 89.2484L245.476 89.8325ZM243.915 85.1385L242.915 85.1327L242.915 85.1327L243.915 85.1385ZM245.377 80.2105L246.235 80.7231L246.235 80.7231L245.377 80.2105ZM254.968 73.4032L255.152 74.3862L255.158 74.3849L254.968 73.4032ZM259.98 73.7591L260.335 72.8242L260.335 72.8242L259.98 73.7591ZM263.893 76.8325L264.473 77.6473L265.296 77.0615L264.702 76.2443L263.893 76.8325ZM259.166 80.0849C258.326 79.105 257.262 78.5397 256.008 78.4907L255.93 80.4891C256.565 80.514 257.127 80.7795 257.648 81.3872L259.166 80.0849ZM256.022 78.4913C254.772 78.4248 253.52 78.9247 252.298 79.794L253.457 81.4236C254.473 80.7008 255.282 80.4548 255.916 80.4885L256.022 78.4913ZM252.298 79.794C251.493 80.3667 250.841 80.9869 250.395 81.6678L252.068 82.7638C252.335 82.3561 252.781 81.905 253.457 81.4236L252.298 79.794ZM250.395 81.6678C249.961 82.3302 249.697 83.0438 249.689 83.7946L251.689 83.8153C251.692 83.5358 251.789 83.1899 252.068 82.7638L250.395 81.6678ZM249.689 83.7836C249.674 84.5098 249.885 85.1859 250.297 85.7876L251.947 84.6574C251.76 84.384 251.682 84.115 251.689 83.8263L249.689 83.7836ZM250.283 85.7663C250.608 86.2676 251.037 86.6691 251.578 86.9194L252.417 85.1041C252.266 85.0339 252.111 84.9092 251.961 84.6787L250.283 85.7663ZM251.597 86.9281C252.101 87.1483 252.647 87.2424 253.215 87.2351L253.19 85.2353C252.86 85.2395 252.602 85.1847 252.398 85.0954L251.597 86.9281ZM253.245 87.2343C253.79 87.2114 254.365 87.1087 254.964 86.9393L254.42 85.0147C253.936 85.1516 253.518 85.221 253.16 85.2361L253.245 87.2343ZM254.964 86.9393C255.556 86.7721 256.18 86.5452 256.835 86.2626L256.043 84.4263C255.453 84.6808 254.913 84.8756 254.42 85.0147L254.964 86.9393ZM256.824 86.2674L259.19 85.281L258.421 83.435L256.054 84.4214L256.824 86.2674ZM259.199 85.2772C260.497 84.7213 261.699 84.3507 262.807 84.154L262.457 82.1848C261.171 82.4131 259.822 82.8348 258.412 83.4387L259.199 85.2772ZM262.81 84.1534C263.926 83.9515 264.93 83.9265 265.832 84.0606L266.126 82.0823C264.974 81.911 263.747 81.9514 262.454 82.1854L262.81 84.1534ZM265.838 84.0615C266.738 84.1895 267.552 84.4855 268.29 84.9478L269.352 83.2529C268.369 82.6376 267.289 82.2477 266.12 82.0814L265.838 84.0615ZM268.29 84.9478C269.026 85.4089 269.706 86.0555 270.325 86.9102L271.945 85.7375C271.198 84.705 270.335 83.8693 269.352 83.2529L268.29 84.9478ZM270.317 86.8994C271.275 88.2606 271.731 89.6203 271.743 90.9941L273.743 90.9757C273.726 89.1395 273.109 87.3918 271.953 85.7483L270.317 86.8994ZM271.743 90.9941C271.756 92.3768 271.335 93.7776 270.424 95.2113L272.112 96.2841C273.197 94.5775 273.76 92.8031 273.743 90.9757L271.743 90.9941ZM270.423 95.2129C269.52 96.6398 268.141 98.0359 266.24 99.3882L267.4 101.018C269.45 99.5592 271.036 97.985 272.113 96.2825L270.423 95.2129ZM266.24 99.3882C264.337 100.743 262.513 101.611 260.768 102.029L261.234 103.974C263.282 103.483 265.337 102.485 267.4 101.018L266.24 99.3882ZM260.768 102.029C259.047 102.441 257.464 102.356 255.987 101.802L255.285 103.675C257.168 104.381 259.161 104.47 261.234 103.974L260.768 102.029ZM255.987 101.802C254.533 101.258 253.169 100.172 251.913 98.4519L250.298 99.6317C251.723 101.583 253.38 102.961 255.285 103.675L255.987 101.802ZM251.685 99.8566L257.171 95.953L256.012 94.3235L250.526 98.227L251.685 99.8566ZM255.813 95.7662C256.494 96.6102 257.298 97.2313 258.236 97.5563L258.891 95.6665C258.379 95.4891 257.868 95.1281 257.37 94.5103L255.813 95.7662ZM258.236 97.5563C259.155 97.8747 260.119 97.9068 261.104 97.6812L260.657 95.7317C260.002 95.8818 259.422 95.8505 258.891 95.6665L258.236 97.5563ZM261.108 97.6802C262.085 97.4516 263.037 96.9916 263.962 96.3336L262.802 94.704C262.045 95.2429 261.329 95.5746 260.652 95.7327L261.108 97.6802ZM263.962 96.3336C264.802 95.7356 265.483 95.081 265.961 94.3579L264.293 93.2547C263.988 93.7168 263.505 94.204 262.802 94.704L263.962 96.3336ZM265.959 94.3618C266.435 93.6496 266.729 92.8896 266.77 92.0918L264.773 91.9895C264.754 92.3496 264.619 92.7668 264.296 93.2508L265.959 94.3618ZM266.77 92.0918C266.811 91.2903 266.596 90.5423 266.141 89.8798L264.493 91.0129C264.703 91.3182 264.791 91.633 264.773 91.9895L266.77 92.0918ZM266.121 89.8526C265.669 89.2391 265.066 88.8122 264.328 88.6271L263.842 90.567C264.094 90.6303 264.312 90.7695 264.512 91.0401L266.121 89.8526ZM264.34 88.63C263.627 88.4423 262.836 88.4882 262.015 88.6791L262.468 90.6271C263.103 90.4795 263.541 90.4879 263.83 90.564L264.34 88.63ZM262.032 88.6755C261.228 88.8484 260.301 89.1564 259.262 89.5839L260.023 91.4335C260.998 91.0324 261.805 90.77 262.452 90.6308L262.032 88.6755ZM259.264 89.5834L256.375 90.7671L257.134 92.6177L260.022 91.4341L259.264 89.5834ZM256.371 90.7686C254.09 91.7147 252.104 92.055 250.391 91.8688L250.175 93.8571C252.315 94.0896 254.645 93.6496 257.137 92.6162L256.371 90.7686ZM250.394 91.8692C248.786 91.6885 247.425 90.8607 246.294 89.2562L244.659 90.4087C246.071 92.4107 247.914 93.6033 250.171 93.8567L250.394 91.8692ZM246.288 89.2484C245.351 87.9455 244.906 86.5847 244.915 85.1442L242.915 85.1327C242.904 87.0299 243.501 88.7985 244.665 90.4165L246.288 89.2484ZM244.915 85.1442C244.923 83.6759 245.35 82.2063 246.235 80.7231L244.518 79.6979C243.473 81.4476 242.925 83.2633 242.915 85.1327L244.915 85.1442ZM246.235 80.7231C247.118 79.2443 248.397 77.8943 250.101 76.6817L248.941 75.0522C247.05 76.398 245.565 77.9438 244.518 79.6979L246.235 80.7231ZM250.101 76.6817C251.846 75.4399 253.529 74.6898 255.152 74.3862L254.784 72.4203C252.817 72.7883 250.869 73.6806 248.941 75.0522L250.101 76.6817ZM255.158 74.3849C256.793 74.0674 258.273 74.1808 259.626 74.694L260.335 72.8242C258.598 72.1649 256.737 72.0411 254.777 72.4216L255.158 74.3849ZM259.626 74.694C260.971 75.2047 262.124 76.0997 263.085 77.4208L264.702 76.2443C263.535 74.6399 262.079 73.4859 260.335 72.8242L259.626 74.694ZM263.313 76.0178L257.828 79.9213L258.987 81.5508L264.473 77.6473L263.313 76.0178ZM264.589 72.6413L263.775 73.221L264.354 74.0358L265.169 73.4561L264.589 72.6413ZM261.279 67.9887L260.699 67.1739L259.884 67.7537L260.464 68.5684L261.279 67.9887ZM281.313 53.7334L282.128 53.1537L281.548 52.3389L280.733 52.9186L281.313 53.7334ZM284.623 58.386L285.203 59.2008L286.018 58.621L285.438 57.8063L284.623 58.386ZM277.436 63.5001L276.856 62.6853L276.042 63.2651L276.621 64.0799L277.436 63.5001ZM290.991 82.5504L291.571 83.3651L292.386 82.7854L291.806 81.9706L290.991 82.5504ZM285.343 86.5692L284.529 87.1489L285.108 87.9637L285.923 87.384L285.343 86.5692ZM271.788 67.5189L272.603 66.9392L272.023 66.1244L271.208 66.7042L271.788 67.5189ZM265.404 72.0615L262.094 67.4089L260.464 68.5684L263.775 73.221L265.404 72.0615ZM261.859 68.8035L281.893 54.5482L280.733 52.9186L260.699 67.1739L261.859 68.8035ZM280.498 54.3132L283.809 58.9658L285.438 57.8063L282.128 53.1537L280.498 54.3132ZM284.044 57.5712L276.856 62.6853L278.016 64.3149L285.203 59.2008L284.044 57.5712ZM276.621 64.0799L290.177 83.1301L291.806 81.9706L278.251 62.9204L276.621 64.0799ZM290.412 81.7356L284.764 85.7544L285.923 87.384L291.571 83.3651L290.412 81.7356ZM286.158 85.9894L272.603 66.9392L270.973 68.0987L284.529 87.1489L286.158 85.9894ZM271.208 66.7042L264.01 71.8265L265.169 73.4561L272.368 68.3337L271.208 66.7042ZM282.93 52.5825L282.35 51.7678L280.974 52.7475L282.495 53.4829L282.93 52.5825ZM289.33 48.0284L289.796 47.1435L289.252 46.857L288.751 47.2136L289.33 48.0284ZM301.399 54.3812L300.934 55.2661L301.478 55.5526L301.979 55.196L301.399 54.3812ZM301.608 54.2329L302.188 55.0477L302.689 54.6911L302.596 54.0829L301.608 54.2329ZM299.562 40.7485L298.982 39.9337L298.481 40.2903L298.573 40.8985L299.562 40.7485ZM305.962 36.1943L306.955 36.0783L306.759 34.3998L305.382 35.3796L305.962 36.1943ZM308.526 58.149L307.533 58.265L307.563 58.5198L307.711 58.7288L308.526 58.149ZM314.159 66.0654L314.739 66.8802L315.554 66.3004L314.974 65.4856L314.159 66.0654ZM308.465 70.1172L307.65 70.6969L308.23 71.5117L309.044 70.9319L308.465 70.1172ZM302.832 62.2008L303.647 61.621L303.498 61.412L303.267 61.3004L302.832 62.2008ZM283.51 53.3973L289.91 48.8432L288.751 47.2136L282.35 51.7678L283.51 53.3973ZM288.865 48.9133L300.934 55.2661L301.865 53.4963L289.796 47.1435L288.865 48.9133ZM301.979 55.196L302.188 55.0477L301.028 53.4182L300.82 53.5664L301.979 55.196ZM302.596 54.0829L300.55 40.5984L298.573 40.8985L300.619 54.383L302.596 54.0829ZM300.141 41.5632L306.542 37.0091L305.382 35.3796L298.982 39.9337L300.141 41.5632ZM304.969 36.3104L307.533 58.265L309.519 58.033L306.955 36.0783L304.969 36.3104ZM307.711 58.7288L313.344 66.6452L314.974 65.4856L309.341 57.5693L307.711 58.7288ZM313.579 65.2506L307.885 69.3024L309.044 70.9319L314.739 66.8802L313.579 65.2506ZM309.28 69.5374L303.647 61.621L302.017 62.7805L307.65 70.6969L309.28 69.5374ZM303.267 61.3004L283.365 51.6822L282.495 53.4829L302.397 63.1011L303.267 61.3004ZM325.229 58.1884L324.414 58.7681L324.994 59.5829L325.809 59.0031L325.229 58.1884ZM308.363 34.4855L307.784 33.6707L306.969 34.2505L307.549 35.0653L308.363 34.4855ZM314.092 30.4091L314.907 29.8293L314.327 29.0145L313.513 29.5943L314.092 30.4091ZM327.648 49.4593L326.833 50.0391L327.413 50.8538L328.227 50.2741L327.648 49.4593ZM337.508 42.4428L338.323 41.8631L337.743 41.0483L336.929 41.6281L337.508 42.4428ZM340.819 47.0954L341.399 47.9102L342.213 47.3305L341.634 46.5157L340.819 47.0954ZM326.044 57.6086L309.178 33.9058L307.549 35.0653L324.414 58.7681L326.044 57.6086ZM308.943 35.3003L314.672 31.2238L313.513 29.5943L307.784 33.6707L308.943 35.3003ZM313.278 30.9888L326.833 50.0391L328.462 48.8795L314.907 29.8293L313.278 30.9888ZM328.227 50.2741L338.088 43.2576L336.929 41.6281L327.068 48.6445L328.227 50.2741ZM336.694 43.0226L340.004 47.6752L341.634 46.5157L338.323 41.8631L336.694 43.0226ZM340.239 46.2807L324.649 57.3736L325.809 59.0031L341.399 47.9102L340.239 46.2807ZM343.785 44.9852L342.97 45.5649L343.55 46.3797L344.364 45.7999L343.785 44.9852ZM326.919 21.2823L326.339 20.4675L325.524 21.0473L326.104 21.8621L326.919 21.2823ZM343.446 9.52235L344.261 8.94259L343.681 8.12781L342.866 8.70757L343.446 9.52235ZM346.757 14.175L347.336 14.9897L348.151 14.41L347.571 13.5952L346.757 14.175ZM335.958 21.8585L335.379 21.0437L334.564 21.6234L335.144 22.4382L335.958 21.8585ZM339.417 26.7194L338.602 27.2992L339.182 28.114L339.997 27.5342L339.417 26.7194ZM349.37 19.6371L350.185 19.0573L349.605 18.2425L348.791 18.8223L349.37 19.6371ZM352.689 24.3013L353.269 25.116L354.084 24.5363L353.504 23.7215L352.689 24.3013ZM342.736 31.3836L342.156 30.5688L341.341 31.1486L341.921 31.9633L342.736 31.3836ZM346.203 36.2561L345.388 36.8359L345.968 37.6506L346.783 37.0709L346.203 36.2561ZM357.001 28.5726L357.816 27.9928L357.236 27.178L356.421 27.7578L357.001 28.5726ZM360.312 33.2252L360.892 34.04L361.706 33.4602L361.127 32.6454L360.312 33.2252ZM344.599 44.4054L327.734 20.7026L326.104 21.8621L342.97 45.5649L344.599 44.4054ZM327.499 22.0971L344.026 10.3371L342.866 8.70757L326.339 20.4675L327.499 22.0971ZM342.631 10.1021L345.942 14.7547L347.571 13.5952L344.261 8.94259L342.631 10.1021ZM346.177 13.3602L335.379 21.0437L336.538 22.6733L347.336 14.9897L346.177 13.3602ZM335.144 22.4382L338.602 27.2992L340.232 26.1396L336.773 21.2787L335.144 22.4382ZM339.997 27.5342L349.95 20.4519L348.791 18.8223L338.837 25.9046L339.997 27.5342ZM348.556 20.2168L351.875 24.881L353.504 23.7215L350.185 19.0573L348.556 20.2168ZM352.11 23.4865L342.156 30.5688L343.316 32.1984L353.269 25.116L352.11 23.4865ZM341.921 31.9633L345.388 36.8359L347.018 35.6763L343.551 30.8038L341.921 31.9633ZM346.783 37.0709L357.581 29.3874L356.421 27.7578L345.623 35.4413L346.783 37.0709ZM356.186 29.1523L359.497 33.805L361.127 32.6454L357.816 27.9928L356.186 29.1523ZM359.732 32.4104L343.205 44.1704L344.364 45.7999L360.892 34.04L359.732 32.4104Z" fill="black" fill-opacity="0.4"/>
<path d="M219.711 292.453L203.384 268.376L220.172 256.992L223.377 261.718L212.408 269.156L215.756 274.094L225.867 267.238L229.08 271.975L218.969 278.832L222.325 283.781L233.294 276.343L236.499 281.069L219.711 292.453ZM240.143 278.598L223.816 254.521L229.636 250.574L242.758 269.925L252.774 263.133L255.979 267.859L240.143 278.598ZM258.992 265.816L242.665 241.739L259.453 230.355L262.658 235.081L251.689 242.519L255.037 247.456L265.148 240.6L268.361 245.338L258.25 252.194L261.606 257.144L272.575 249.706L275.78 254.432L258.992 265.816ZM284.231 225.033C283.763 224.63 283.272 224.328 282.758 224.127C282.239 223.918 281.701 223.808 281.144 223.797C280.588 223.786 280.021 223.878 279.445 224.074C278.863 224.263 278.282 224.554 277.702 224.947C276.534 225.739 275.715 226.707 275.243 227.85C274.779 228.989 274.683 230.255 274.954 231.651C275.22 233.038 275.873 234.5 276.915 236.036C277.962 237.58 279.078 238.745 280.264 239.532C281.449 240.318 282.659 240.71 283.894 240.708C285.128 240.707 286.349 240.296 287.556 239.478C288.622 238.755 289.406 237.971 289.909 237.127C290.415 236.269 290.641 235.389 290.59 234.486C290.538 233.583 290.217 232.696 289.627 231.826L290.796 231.222L284.942 235.192L282.064 230.948L292.445 223.909L294.605 227.095C296.067 229.25 296.86 231.407 296.984 233.565C297.117 235.717 296.663 237.747 295.622 239.655C294.589 241.556 293.038 243.209 290.969 244.612C288.673 246.169 286.317 247.04 283.902 247.225C281.487 247.409 279.169 246.91 276.948 245.727C274.722 244.537 272.748 242.672 271.026 240.132C269.687 238.157 268.793 236.206 268.344 234.279C267.89 232.345 267.827 230.488 268.154 228.71C268.49 226.927 269.165 225.29 270.18 223.801C271.203 222.306 272.518 221.014 274.125 219.925C275.52 218.978 276.952 218.299 278.423 217.885C279.901 217.467 281.349 217.308 282.768 217.41C284.195 217.506 285.539 217.859 286.799 218.469C288.06 219.079 289.167 219.936 290.121 221.039L284.231 225.033ZM309.268 231.723L303.014 235.964L294.81 206.378L302.557 201.124L327.008 219.692L320.754 223.934L302.885 209.758L302.697 209.885L309.268 231.723ZM302.008 222.813L315.081 213.948L318.078 218.368L305.005 227.233L302.008 222.813ZM333.765 179.962L350.092 204.039L345.154 207.387L326.149 199.989L325.997 200.092L335.42 213.988L329.6 217.934L313.273 193.857L318.281 190.461L337.164 197.908L337.364 197.773L327.957 183.9L333.765 179.962ZM365.194 171.383L359.316 175.369C358.828 174.819 358.298 174.383 357.726 174.062C357.153 173.741 356.55 173.543 355.917 173.47C355.283 173.396 354.631 173.455 353.96 173.647C353.292 173.825 352.628 174.138 351.97 174.584C350.802 175.376 349.989 176.345 349.531 177.491C349.08 178.632 348.994 179.897 349.273 181.287C349.56 182.672 350.224 184.132 351.266 185.668C352.35 187.267 353.486 188.453 354.674 189.227C355.865 189.987 357.061 190.359 358.264 190.345C359.469 190.317 360.644 189.915 361.789 189.139C362.431 188.703 362.959 188.225 363.373 187.704C363.794 187.178 364.098 186.623 364.286 186.038C364.475 185.441 364.545 184.827 364.496 184.197C364.448 183.554 364.279 182.908 363.988 182.259L369.89 178.308C370.511 179.443 370.913 180.703 371.098 182.088C371.29 183.468 371.229 184.888 370.915 186.348C370.595 187.801 369.963 189.214 369.018 190.587C368.08 191.955 366.785 193.199 365.131 194.321C362.952 195.798 360.676 196.644 358.304 196.857C355.934 197.057 353.626 196.573 351.382 195.406C349.138 194.24 347.12 192.336 345.329 189.694C343.532 187.045 342.515 184.457 342.277 181.929C342.039 179.402 342.458 177.076 343.534 174.95C344.61 172.825 346.218 171.036 348.357 169.586C349.815 168.597 351.301 167.887 352.816 167.454C354.325 167.014 355.813 166.863 357.28 167.002C358.742 167.132 360.146 167.558 361.494 168.28C362.842 169.002 364.075 170.037 365.194 171.383ZM378.936 184.479L362.609 160.402L379.397 149.017L382.602 153.743L371.633 161.182L374.981 166.119L385.092 159.263L388.305 164.001L378.194 170.857L381.551 175.806L392.519 168.368L395.724 173.094L378.936 184.479Z" fill="#DFDFDF"/>
<path d="M219.711 292.453L218.883 293.015L219.445 293.842L220.272 293.281L219.711 292.453ZM203.384 268.376L202.822 267.549L201.995 268.11L202.556 268.938L203.384 268.376ZM220.172 256.992L220.999 256.431L220.438 255.603L219.611 256.164L220.172 256.992ZM223.377 261.718L223.938 262.546L224.766 261.984L224.204 261.157L223.377 261.718ZM212.408 269.156L211.847 268.329L211.019 268.89L211.58 269.717L212.408 269.156ZM215.756 274.094L214.929 274.655L215.49 275.483L216.318 274.921L215.756 274.094ZM225.867 267.238L226.694 266.676L226.133 265.849L225.306 266.41L225.867 267.238ZM229.08 271.975L229.641 272.803L230.469 272.242L229.907 271.414L229.08 271.975ZM218.969 278.832L218.408 278.004L217.58 278.565L218.141 279.393L218.969 278.832ZM222.325 283.781L221.498 284.342L222.059 285.17L222.887 284.609L222.325 283.781ZM233.294 276.343L234.122 275.782L233.561 274.954L232.733 275.515L233.294 276.343ZM236.499 281.069L237.06 281.897L237.888 281.335L237.327 280.508L236.499 281.069ZM220.539 291.892L204.211 267.815L202.556 268.938L218.883 293.015L220.539 291.892ZM203.945 269.204L220.733 257.82L219.611 256.164L202.822 267.549L203.945 269.204ZM219.344 257.553L222.549 262.279L224.204 261.157L220.999 256.431L219.344 257.553ZM222.815 260.89L211.847 268.329L212.969 269.984L223.938 262.546L222.815 260.89ZM211.58 269.717L214.929 274.655L216.584 273.533L213.236 268.595L211.58 269.717ZM216.318 274.921L226.428 268.065L225.306 266.41L215.195 273.266L216.318 274.921ZM225.039 267.799L228.252 272.537L229.907 271.414L226.694 266.676L225.039 267.799ZM228.518 271.148L218.408 278.004L219.53 279.659L229.641 272.803L228.518 271.148ZM218.141 279.393L221.498 284.342L223.153 283.22L219.797 278.27L218.141 279.393ZM222.887 284.609L233.855 277.171L232.733 275.515L221.764 282.953L222.887 284.609ZM232.467 276.904L235.671 281.63L237.327 280.508L234.122 275.782L232.467 276.904ZM235.938 280.241L219.15 291.626L220.272 293.281L237.06 281.897L235.938 280.241ZM240.143 278.598L239.316 279.159L239.877 279.986L240.705 279.425L240.143 278.598ZM223.816 254.521L223.255 253.693L222.427 254.254L222.989 255.082L223.816 254.521ZM229.636 250.574L230.463 250.013L229.902 249.185L229.074 249.747L229.636 250.574ZM242.758 269.925L241.93 270.486L242.492 271.314L243.319 270.753L242.758 269.925ZM252.774 263.133L253.602 262.572L253.041 261.744L252.213 262.305L252.774 263.133ZM255.979 267.859L256.541 268.687L257.368 268.125L256.807 267.298L255.979 267.859ZM240.971 278.036L224.644 253.959L222.989 255.082L239.316 279.159L240.971 278.036ZM224.377 255.348L230.197 251.402L229.074 249.747L223.255 253.693L224.377 255.348ZM228.808 251.136L241.93 270.486L243.586 269.364L230.463 250.013L228.808 251.136ZM243.319 270.753L253.336 263.961L252.213 262.305L242.197 269.098L243.319 270.753ZM251.947 263.694L255.152 268.42L256.807 267.298L253.602 262.572L251.947 263.694ZM255.418 267.031L239.582 277.77L240.705 279.425L256.541 268.687L255.418 267.031ZM258.992 265.816L258.164 266.377L258.725 267.205L259.553 266.644L258.992 265.816ZM242.665 241.739L242.103 240.911L241.276 241.473L241.837 242.3L242.665 241.739ZM259.453 230.355L260.28 229.793L259.719 228.966L258.891 229.527L259.453 230.355ZM262.658 235.081L263.219 235.908L264.046 235.347L263.485 234.519L262.658 235.081ZM251.689 242.519L251.128 241.691L250.3 242.252L250.861 243.08L251.689 242.519ZM255.037 247.456L254.21 248.018L254.771 248.845L255.598 248.284L255.037 247.456ZM265.148 240.6L265.975 240.039L265.414 239.211L264.586 239.773L265.148 240.6ZM268.361 245.338L268.922 246.166L269.749 245.604L269.188 244.777L268.361 245.338ZM258.25 252.194L257.689 251.367L256.861 251.928L257.422 252.756L258.25 252.194ZM261.606 257.144L260.779 257.705L261.34 258.533L262.168 257.971L261.606 257.144ZM272.575 249.706L273.403 249.144L272.841 248.317L272.014 248.878L272.575 249.706ZM275.78 254.432L276.341 255.259L277.169 254.698L276.608 253.87L275.78 254.432ZM259.819 265.255L243.492 241.178L241.837 242.3L258.164 266.377L259.819 265.255ZM243.226 242.567L260.014 231.182L258.891 229.527L242.103 240.911L243.226 242.567ZM258.625 230.916L261.83 235.642L263.485 234.519L260.28 229.793L258.625 230.916ZM262.096 234.253L251.128 241.691L252.25 243.346L263.219 235.908L262.096 234.253ZM250.861 243.08L254.21 248.018L255.865 246.895L252.517 241.958L250.861 243.08ZM255.598 248.284L265.709 241.428L264.586 239.773L254.476 246.629L255.598 248.284ZM264.32 241.162L267.533 245.899L269.188 244.777L265.975 240.039L264.32 241.162ZM267.799 244.51L257.689 251.367L258.811 253.022L268.922 246.166L267.799 244.51ZM257.422 252.756L260.779 257.705L262.434 256.582L259.078 251.633L257.422 252.756ZM262.168 257.971L273.136 250.533L272.014 248.878L261.045 256.316L262.168 257.971ZM271.747 250.267L274.952 254.993L276.608 253.87L273.403 249.144L271.747 250.267ZM275.219 253.604L258.431 264.988L259.553 266.644L276.341 255.259L275.219 253.604ZM284.231 225.033L283.578 225.791L284.158 226.291L284.792 225.861L284.231 225.033ZM282.758 224.127L282.385 225.055L282.394 225.058L282.758 224.127ZM279.445 224.074L279.753 225.026L279.76 225.023L279.767 225.021L279.445 224.074ZM275.243 227.85L274.319 227.469L274.317 227.473L275.243 227.85ZM274.954 231.651L275.936 231.462L275.936 231.46L274.954 231.651ZM280.264 239.532L280.817 238.698L280.817 238.698L280.264 239.532ZM283.894 240.708L283.892 239.708L283.892 239.708L283.894 240.708ZM289.909 237.127L290.768 237.639L290.771 237.635L289.909 237.127ZM290.59 234.486L289.591 234.543L289.591 234.543L290.59 234.486ZM289.627 231.826L289.168 230.938L288.167 231.455L288.799 232.388L289.627 231.826ZM290.796 231.222L291.358 232.05L290.337 230.334L290.796 231.222ZM284.942 235.192L284.114 235.754L284.675 236.581L285.503 236.02L284.942 235.192ZM282.064 230.948L281.502 230.121L280.675 230.682L281.236 231.51L282.064 230.948ZM292.445 223.909L293.272 223.348L292.711 222.52L291.883 223.081L292.445 223.909ZM296.984 233.565L295.986 233.622L295.986 233.626L296.984 233.565ZM295.622 239.655L294.744 239.176L294.743 239.177L295.622 239.655ZM283.902 247.225L283.826 246.228L283.826 246.228L283.902 247.225ZM276.948 245.727L276.477 246.609L276.478 246.61L276.948 245.727ZM268.344 234.279L269.318 234.053L269.318 234.051L268.344 234.279ZM268.154 228.71L267.172 228.525L267.171 228.529L268.154 228.71ZM270.18 223.801L269.355 223.236L269.354 223.238L270.18 223.801ZM278.423 217.885L278.693 218.848L278.695 218.847L278.423 217.885ZM282.768 217.41L282.697 218.407L282.701 218.407L282.768 217.41ZM286.799 218.469L286.364 219.369L286.364 219.369L286.799 218.469ZM290.121 221.039L290.682 221.867L291.613 221.236L290.877 220.385L290.121 221.039ZM284.884 224.276C284.34 223.807 283.753 223.442 283.122 223.196L282.394 225.058C282.791 225.213 283.186 225.453 283.578 225.791L284.884 224.276ZM283.131 223.199C282.501 222.946 281.843 222.811 281.165 222.797L281.124 224.797C281.56 224.806 281.978 224.891 282.385 225.055L283.131 223.199ZM281.165 222.797C280.481 222.783 279.799 222.897 279.122 223.128L279.767 225.021C280.243 224.859 280.694 224.788 281.124 224.797L281.165 222.797ZM279.136 223.123C278.453 223.345 277.788 223.681 277.141 224.119L278.264 225.775C278.777 225.427 279.273 225.181 279.753 225.026L279.136 223.123ZM277.141 224.119C275.835 225.005 274.875 226.12 274.319 227.469L276.168 228.232C276.554 227.294 277.234 226.473 278.264 225.775L277.141 224.119ZM274.317 227.473C273.769 228.818 273.67 230.286 273.972 231.841L275.936 231.46C275.696 230.225 275.79 229.159 276.169 228.228L274.317 227.473ZM273.972 231.839C274.27 233.394 274.992 234.982 276.088 236.597L277.743 235.475C276.755 234.017 276.17 232.681 275.936 231.462L273.972 231.839ZM276.088 236.597C277.186 238.217 278.389 239.488 279.711 240.365L280.817 238.698C279.768 238.002 278.738 236.943 277.743 235.475L276.088 236.597ZM279.711 240.365C281.035 241.243 282.435 241.711 283.895 241.708L283.892 239.708C282.884 239.71 281.864 239.393 280.817 238.698L279.711 240.365ZM283.895 241.708C285.363 241.706 286.776 241.215 288.117 240.306L286.995 238.65C285.922 239.377 284.893 239.707 283.892 239.708L283.895 241.708ZM288.117 240.306C289.268 239.525 290.171 238.642 290.768 237.639L289.05 236.615C288.642 237.301 287.975 237.985 286.995 238.65L288.117 240.306ZM290.771 237.635C291.366 236.624 291.652 235.549 291.588 234.429L289.591 234.543C289.631 235.229 289.463 235.914 289.048 236.619L290.771 237.635ZM291.588 234.429C291.524 233.318 291.129 232.26 290.455 231.265L288.799 232.388C289.305 233.133 289.551 233.848 289.591 234.543L291.588 234.429ZM290.086 232.715L291.255 232.111L290.337 230.334L289.168 230.938L290.086 232.715ZM290.235 230.395L284.38 234.365L285.503 236.02L291.358 232.05L290.235 230.395ZM285.769 234.631L282.891 230.387L281.236 231.51L284.114 235.754L285.769 234.631ZM282.625 231.776L293.006 224.736L291.883 223.081L281.502 230.121L282.625 231.776ZM291.617 224.47L293.777 227.656L295.433 226.534L293.272 223.348L291.617 224.47ZM293.777 227.656C295.158 229.693 295.874 231.678 295.986 233.622L297.983 233.507C297.846 231.135 296.975 228.808 295.433 226.534L293.777 227.656ZM295.986 233.626C296.107 235.59 295.696 237.432 294.744 239.176L296.5 240.134C297.63 238.062 298.127 235.845 297.983 233.503L295.986 233.626ZM294.743 239.177C293.798 240.918 292.365 242.457 290.408 243.784L291.53 245.44C293.711 243.961 295.381 242.195 296.501 240.132L294.743 239.177ZM290.408 243.784C288.234 245.258 286.043 246.058 283.826 246.228L283.978 248.222C286.591 248.022 289.111 247.08 291.53 245.44L290.408 243.784ZM283.826 246.228C281.608 246.397 279.479 245.942 277.418 244.845L276.478 246.61C278.86 247.878 281.366 248.421 283.978 248.222L283.826 246.228ZM277.42 244.846C275.364 243.746 273.504 242.005 271.854 239.571L270.198 240.694C271.992 243.339 274.08 245.327 276.477 246.609L277.42 244.846ZM271.854 239.571C270.569 237.677 269.734 235.838 269.318 234.053L267.37 234.506C267.852 236.574 268.804 238.637 270.198 240.694L271.854 239.571ZM269.318 234.051C268.892 232.237 268.838 230.521 269.138 228.891L267.171 228.529C266.816 230.456 266.888 232.452 267.371 234.508L269.318 234.051ZM269.137 228.895C269.447 227.246 270.069 225.739 271.006 224.364L269.354 223.238C268.26 224.842 267.532 226.607 267.172 228.525L269.137 228.895ZM271.005 224.366C271.953 222.982 273.175 221.777 274.686 220.752L273.564 219.097C271.861 220.252 270.454 221.631 269.355 223.236L271.005 224.366ZM274.686 220.752C276.001 219.86 277.337 219.229 278.693 218.848L278.152 216.923C276.568 217.368 275.038 218.097 273.564 219.097L274.686 220.752ZM278.695 218.847C280.07 218.458 281.403 218.314 282.697 218.407L282.84 216.412C281.296 216.302 279.731 216.475 278.15 216.923L278.695 218.847ZM282.701 218.407C284.003 218.495 285.221 218.816 286.364 219.369L287.235 217.569C285.857 216.902 284.388 216.517 282.836 216.412L282.701 218.407ZM286.364 219.369C287.496 219.917 288.496 220.689 289.365 221.693L290.877 220.385C289.838 219.183 288.623 218.241 287.235 217.569L286.364 219.369ZM289.56 220.212L283.67 224.206L284.792 225.861L290.682 221.867L289.56 220.212ZM309.268 231.723L309.829 232.55L310.437 232.138L310.225 231.434L309.268 231.723ZM303.014 235.964L302.05 236.231L302.422 237.573L303.575 236.791L303.014 235.964ZM294.81 206.378L294.249 205.55L293.654 205.953L293.846 206.645L294.81 206.378ZM302.557 201.124L303.162 200.328L302.59 199.894L301.996 200.297L302.557 201.124ZM327.008 219.692L327.569 220.52L328.722 219.738L327.613 218.896L327.008 219.692ZM320.754 223.934L320.132 224.717L320.707 225.173L321.315 224.761L320.754 223.934ZM302.885 209.758L303.507 208.974L302.932 208.518L302.324 208.93L302.885 209.758ZM302.697 209.885L302.136 209.057L301.528 209.47L301.74 210.173L302.697 209.885ZM302.008 222.813L301.446 221.985L300.619 222.547L301.18 223.374L302.008 222.813ZM315.081 213.948L315.908 213.387L315.347 212.559L314.519 213.12L315.081 213.948ZM318.078 218.368L318.639 219.196L319.467 218.635L318.906 217.807L318.078 218.368ZM305.005 227.233L304.177 227.795L304.739 228.622L305.566 228.061L305.005 227.233ZM308.707 230.895L302.452 235.136L303.575 236.791L309.829 232.55L308.707 230.895ZM303.977 235.697L295.774 206.111L293.846 206.645L302.05 236.231L303.977 235.697ZM295.371 207.206L303.119 201.952L301.996 200.297L294.249 205.55L295.371 207.206ZM301.953 201.921L326.403 220.489L327.613 218.896L303.162 200.328L301.953 201.921ZM326.447 218.865L320.193 223.106L321.315 224.761L327.569 220.52L326.447 218.865ZM321.375 223.15L303.507 208.974L302.264 210.541L320.132 224.717L321.375 223.15ZM302.324 208.93L302.136 209.057L303.259 210.713L303.447 210.585L302.324 208.93ZM301.74 210.173L308.31 232.011L310.225 231.434L303.655 209.597L301.74 210.173ZM302.569 223.641L315.642 214.775L314.519 213.12L301.446 221.985L302.569 223.641ZM314.253 214.509L317.251 218.929L318.906 217.807L315.908 213.387L314.253 214.509ZM317.517 217.541L304.444 226.406L305.566 228.061L318.639 219.196L317.517 217.541ZM305.833 226.672L302.835 222.252L301.18 223.374L304.177 227.795L305.833 226.672ZM333.765 179.962L334.592 179.401L334.031 178.573L333.203 179.134L333.765 179.962ZM350.092 204.039L350.653 204.866L351.481 204.305L350.919 203.478L350.092 204.039ZM345.154 207.387L344.791 208.319L345.281 208.51L345.715 208.215L345.154 207.387ZM326.149 199.989L326.512 199.057L326.023 198.866L325.588 199.161L326.149 199.989ZM325.997 200.092L325.435 199.265L324.608 199.826L325.169 200.653L325.997 200.092ZM335.42 213.988L335.981 214.816L336.809 214.255L336.248 213.427L335.42 213.988ZM329.6 217.934L328.773 218.496L329.334 219.323L330.162 218.762L329.6 217.934ZM313.273 193.857L312.712 193.03L311.884 193.591L312.446 194.419L313.273 193.857ZM318.281 190.461L318.648 189.531L318.157 189.337L317.72 189.634L318.281 190.461ZM337.164 197.908L336.798 198.838L337.289 199.032L337.726 198.736L337.164 197.908ZM337.364 197.773L337.925 198.6L338.753 198.039L338.192 197.211L337.364 197.773ZM327.957 183.9L327.396 183.072L326.568 183.634L327.129 184.461L327.957 183.9ZM332.937 180.523L349.264 204.6L350.919 203.478L334.592 179.401L332.937 180.523ZM349.531 203.211L344.593 206.559L345.715 208.215L350.653 204.866L349.531 203.211ZM345.517 206.455L326.512 199.057L325.787 200.92L344.791 208.319L345.517 206.455ZM325.588 199.161L325.435 199.265L326.558 200.92L326.711 200.816L325.588 199.161ZM325.169 200.653L334.592 214.549L336.248 213.427L326.824 199.531L325.169 200.653ZM334.859 213.161L329.039 217.107L330.162 218.762L335.981 214.816L334.859 213.161ZM330.428 217.373L314.101 193.296L312.446 194.419L328.773 218.496L330.428 217.373ZM313.835 194.685L318.843 191.289L317.72 189.634L312.712 193.03L313.835 194.685ZM317.915 191.392L336.798 198.838L337.531 196.978L318.648 189.531L317.915 191.392ZM337.726 198.736L337.925 198.6L336.803 196.945L336.603 197.08L337.726 198.736ZM338.192 197.211L328.785 183.339L327.129 184.461L336.537 198.334L338.192 197.211ZM328.518 184.728L334.326 180.789L333.203 179.134L327.396 183.072L328.518 184.728ZM365.194 171.383L365.755 172.211L366.668 171.592L365.963 170.744L365.194 171.383ZM359.316 175.369L358.568 176.032L359.15 176.69L359.877 176.197L359.316 175.369ZM357.726 174.062L357.237 174.934L357.237 174.934L357.726 174.062ZM355.917 173.47L356.033 172.476L356.033 172.476L355.917 173.47ZM353.96 173.647L354.218 174.613L354.227 174.61L354.235 174.608L353.96 173.647ZM349.531 177.491L348.602 177.12L348.601 177.124L349.531 177.491ZM349.273 181.287L348.293 181.484L348.294 181.49L349.273 181.287ZM354.674 189.227L354.129 190.065L354.136 190.069L354.674 189.227ZM358.264 190.345L358.276 191.345L358.287 191.344L358.264 190.345ZM363.373 187.704L362.592 187.079L362.59 187.082L363.373 187.704ZM364.286 186.038L365.238 186.343L365.239 186.341L364.286 186.038ZM364.496 184.197L363.498 184.27L363.499 184.275L364.496 184.197ZM363.988 182.259L363.432 181.428L362.73 181.897L363.076 182.668L363.988 182.259ZM369.89 178.308L370.767 177.828L370.242 176.868L369.334 177.477L369.89 178.308ZM371.098 182.088L370.106 182.22L370.107 182.226L371.098 182.088ZM370.915 186.348L371.891 186.563L371.892 186.559L370.915 186.348ZM369.018 190.587L368.194 190.02L368.193 190.022L369.018 190.587ZM358.304 196.857L358.388 197.853L358.393 197.853L358.304 196.857ZM351.382 195.406L351.843 194.519L351.382 195.406ZM342.277 181.929L341.282 182.023L341.282 182.023L342.277 181.929ZM352.816 167.454L353.09 168.416L353.096 168.414L352.816 167.454ZM357.28 167.002L357.186 167.997L357.191 167.998L357.28 167.002ZM364.633 170.555L358.755 174.542L359.877 176.197L365.755 172.211L364.633 170.555ZM360.065 174.706C359.512 174.082 358.896 173.572 358.215 173.19L357.237 174.934C357.701 175.194 358.145 175.556 358.568 176.032L360.065 174.706ZM358.215 173.19C357.531 172.806 356.801 172.566 356.033 172.476L355.801 174.463C356.3 174.521 356.776 174.676 357.237 174.934L358.215 173.19ZM356.033 172.476C355.256 172.386 354.471 172.46 353.685 172.685L354.235 174.608C354.791 174.449 355.31 174.406 355.801 174.463L356.033 172.476ZM353.702 172.68C352.911 172.892 352.146 173.257 351.409 173.756L352.531 175.412C353.111 175.019 353.673 174.758 354.218 174.613L353.702 172.68ZM351.409 173.756C350.1 174.644 349.145 175.763 348.602 177.12L350.459 177.863C350.833 176.927 351.504 176.108 352.531 175.412L351.409 173.756ZM348.601 177.124C348.069 178.471 347.982 179.935 348.293 181.484L350.254 181.091C350.007 179.86 350.091 178.794 350.461 177.859L348.601 177.124ZM348.294 181.49C348.614 183.036 349.345 184.617 350.438 186.23L352.093 185.107C351.103 183.647 350.506 182.307 350.252 181.084L348.294 181.49ZM350.438 186.23C351.572 187.901 352.796 189.198 354.129 190.065L355.22 188.388C354.176 187.709 353.128 186.633 352.093 185.107L350.438 186.23ZM354.136 190.069C355.462 190.916 356.847 191.362 358.276 191.345L358.252 189.345C357.276 189.357 356.268 189.058 355.212 188.384L354.136 190.069ZM358.287 191.344C359.712 191.311 361.07 190.834 362.35 189.967L361.227 188.311C360.218 188.996 359.227 189.322 358.241 189.345L358.287 191.344ZM362.35 189.967C363.063 189.483 363.67 188.938 364.156 188.326L362.59 187.082C362.249 187.511 361.8 187.923 361.227 188.311L362.35 189.967ZM364.153 188.329C364.644 187.717 365.01 187.055 365.238 186.343L363.333 185.733C363.187 186.191 362.945 186.639 362.592 187.079L364.153 188.329ZM365.239 186.341C365.468 185.619 365.552 184.876 365.492 184.118L363.499 184.275C363.538 184.778 363.483 185.262 363.332 185.736L365.239 186.341ZM365.493 184.124C365.436 183.353 365.234 182.593 364.9 181.849L363.076 182.668C363.324 183.222 363.461 183.754 363.498 184.27L365.493 184.124ZM364.544 183.09L370.446 179.139L369.334 177.477L363.432 181.428L364.544 183.09ZM369.013 178.788C369.57 179.806 369.937 180.947 370.106 182.22L372.089 181.956C371.89 180.459 371.452 179.079 370.767 177.828L369.013 178.788ZM370.107 182.226C370.282 183.482 370.228 184.784 369.937 186.138L371.892 186.559C372.229 184.992 372.298 183.454 372.088 181.95L370.107 182.226ZM369.938 186.134C369.649 187.445 369.075 188.74 368.194 190.02L369.841 191.154C370.851 189.687 371.541 188.156 371.891 186.563L369.938 186.134ZM368.193 190.022C367.339 191.268 366.141 192.428 364.57 193.493L365.692 195.149C367.429 193.971 368.822 192.642 369.843 191.152L368.193 190.022ZM364.57 193.493C362.516 194.886 360.401 195.664 358.214 195.861L358.393 197.853C360.952 197.623 363.388 196.711 365.692 195.149L364.57 193.493ZM358.22 195.86C356.05 196.043 353.931 195.605 351.843 194.519L350.921 196.294C353.322 197.542 355.817 198.07 358.388 197.853L358.22 195.86ZM351.843 194.519C349.78 193.446 347.878 191.672 346.156 189.133L344.501 190.256C346.361 192.999 348.495 195.033 350.921 196.294L351.843 194.519ZM346.156 189.133C344.43 186.588 343.491 184.158 343.273 181.836L341.282 182.023C341.539 184.756 342.634 187.503 344.501 190.256L346.156 189.133ZM343.273 181.836C343.051 179.483 343.441 177.348 344.426 175.402L342.642 174.499C341.475 176.804 341.027 179.321 341.282 182.023L343.273 181.836ZM344.426 175.402C345.419 173.44 346.907 171.777 348.919 170.413L347.796 168.758C345.528 170.296 343.801 172.209 342.642 174.499L344.426 175.402ZM348.919 170.413C350.299 169.477 351.689 168.816 353.09 168.416L352.542 166.493C350.914 166.957 349.331 167.717 347.796 168.758L348.919 170.413ZM353.096 168.414C354.492 168.007 355.854 167.872 357.186 167.997L357.374 166.006C355.773 165.855 354.159 166.021 352.536 166.494L353.096 168.414ZM357.191 167.998C358.513 168.115 359.788 168.5 361.022 169.162L361.966 167.399C360.505 166.616 358.97 166.148 357.369 166.006L357.191 167.998ZM361.022 169.162C362.241 169.815 363.377 170.761 364.425 172.022L365.963 170.744C364.774 169.313 363.443 168.19 361.966 167.399L361.022 169.162ZM378.936 184.479L378.108 185.04L378.67 185.868L379.497 185.306L378.936 184.479ZM362.609 160.402L362.048 159.574L361.22 160.135L361.781 160.963L362.609 160.402ZM379.397 149.017L380.225 148.456L379.663 147.628L378.836 148.19L379.397 149.017ZM382.602 153.743L383.163 154.571L383.991 154.01L383.429 153.182L382.602 153.743ZM371.633 161.182L371.072 160.354L370.244 160.915L370.805 161.743L371.633 161.182ZM374.981 166.119L374.154 166.68L374.715 167.508L375.543 166.947L374.981 166.119ZM385.092 159.263L385.92 158.702L385.358 157.874L384.531 158.435L385.092 159.263ZM388.305 164.001L388.866 164.829L389.694 164.267L389.132 163.44L388.305 164.001ZM378.194 170.857L377.633 170.029L376.805 170.591L377.367 171.418L378.194 170.857ZM381.551 175.806L380.723 176.368L381.284 177.195L382.112 176.634L381.551 175.806ZM392.519 168.368L393.347 167.807L392.786 166.979L391.958 167.541L392.519 168.368ZM395.724 173.094L396.285 173.922L397.113 173.361L396.552 172.533L395.724 173.094ZM379.764 183.918L363.436 159.841L361.781 160.963L378.108 185.04L379.764 183.918ZM363.17 161.229L379.958 149.845L378.836 148.19L362.048 159.574L363.17 161.229ZM378.569 149.579L381.774 154.305L383.429 153.182L380.225 148.456L378.569 149.579ZM382.04 152.916L371.072 160.354L372.194 162.009L383.163 154.571L382.04 152.916ZM370.805 161.743L374.154 166.68L375.809 165.558L372.461 160.62L370.805 161.743ZM375.543 166.947L385.653 160.091L384.531 158.435L374.42 165.292L375.543 166.947ZM384.264 159.824L387.477 164.562L389.132 163.44L385.92 158.702L384.264 159.824ZM387.743 163.173L377.633 170.029L378.755 171.685L388.866 164.829L387.743 163.173ZM377.367 171.418L380.723 176.368L382.378 175.245L379.022 170.296L377.367 171.418ZM382.112 176.634L393.08 169.196L391.958 167.541L380.989 174.979L382.112 176.634ZM391.692 168.93L394.896 173.656L396.552 172.533L393.347 167.807L391.692 168.93ZM395.163 172.267L378.375 183.651L379.497 185.306L396.285 173.922L395.163 172.267Z" fill="black" fill-opacity="0.4"/>
</svg>
