<svg width="164" height="62" viewBox="0 0 164 62" fill="none" xmlns="http://www.w3.org/2000/svg">
<path d="M1.16 39V36.92H5V13.8H1.24V11.72H9.24V39H1.16ZM9.24 39V36.6H26.52V39H9.24ZM16.16 29.16C16.16 28.0133 15.9333 27.2 15.48 26.72C15.0533 26.2133 14.3067 25.96 13.24 25.96H18.4V32.32H16.16V29.16ZM9.24 25.96V23.6H18.4V25.96H9.24ZM20.96 36.6C22.1333 36.6 22.9467 36.3467 23.4 35.84C23.8533 35.3333 24.08 34.4533 24.08 33.2V29.24H26.52V36.6H20.96ZM13.24 23.6C14.3067 23.6 15.0533 23.36 15.48 22.88C15.9333 22.4 16.16 21.5733 16.16 20.4V18.28H18.4V23.6H13.24ZM9.24 14.08V11.72H26.2V14.08H9.24ZM23.76 17.52C23.76 16.2667 23.52 15.3867 23.04 14.88C22.5867 14.3467 21.7733 14.08 20.6 14.08H26.2V21.12H23.76V17.52ZM56.3191 39.6C53.5191 39.6 51.0391 39.04 48.8791 37.92C46.7457 36.8 45.0791 35.1867 43.8791 33.08C42.6791 30.9467 42.0791 28.3733 42.0791 25.36C42.0791 22.3733 42.6657 19.8267 43.8391 17.72C45.0124 15.5867 46.6391 13.96 48.7191 12.84C50.7991 11.6933 53.1724 11.12 55.8391 11.12C58.2657 11.12 60.3324 11.5467 62.0391 12.4C63.7724 13.2533 65.0924 14.44 65.9991 15.96C66.9057 17.4533 67.3724 19.2 67.3991 21.2H66.2791C66.1191 19.9467 65.6924 18.7467 64.9991 17.6C64.3057 16.4533 63.3057 15.52 61.9991 14.8C60.6924 14.0533 59.0257 13.68 56.9991 13.68C54.9457 13.68 53.1324 14.1467 51.5591 15.08C50.0124 15.9867 48.7991 17.2933 47.9191 19C47.0391 20.7067 46.5991 22.72 46.5991 25.04C46.5991 27.3867 47.0524 29.4133 47.9591 31.12C48.8657 32.8 50.1191 34.0933 51.7191 35C53.3191 35.9067 55.1324 36.36 57.1591 36.36C59.1324 36.36 60.7991 36.0133 62.1591 35.32C63.5191 34.6 64.5591 33.6533 65.2791 32.48C65.9991 31.28 66.4124 29.96 66.5191 28.52H69.0791C69.0257 30.52 68.5191 32.36 67.5591 34.04C66.6257 35.72 65.2257 37.0667 63.3591 38.08C61.5191 39.0933 59.1724 39.6 56.3191 39.6ZM67.3991 21.2L66.2791 18.72V11.72H68.8391V21.2H67.3991ZM72.5663 39V36.92H76.4062V13.8H72.6463V11.72H85.8463V13.8H80.6463V39H72.5663ZM80.6463 39V36.6H97.1263V39H80.6463ZM91.4863 36.6C92.6596 36.6 93.4729 36.3467 93.9263 35.84C94.3796 35.3333 94.6063 34.4533 94.6063 33.2V29.4H97.1263V36.6H91.4863ZM99.9025 39V36.92H102.743L113.463 11.6H117.263L128.023 36.92H130.863V39H118.703V36.92H123.463L113.903 14.16H115.343L105.743 36.92H110.463V39H99.9025ZM107.743 30.44V28.04H121.543V30.44H107.743ZM140.92 39V36.6H146.16C148.293 36.6 150.173 36.1467 151.8 35.24C153.426 34.3067 154.693 33 155.6 31.32C156.506 29.64 156.96 27.6533 156.96 25.36C156.96 23.04 156.506 21.04 155.6 19.36C154.693 17.68 153.426 16.3867 151.8 15.48C150.173 14.5467 148.293 14.08 146.16 14.08H140.92V11.72H146.52C149.533 11.72 152.146 12.2533 154.36 13.32C156.6 14.3867 158.333 15.9333 159.56 17.96C160.813 19.9867 161.44 22.4533 161.44 25.36C161.44 28.24 160.813 30.7067 159.56 32.76C158.333 34.7867 156.6 36.3333 154.36 37.4C152.146 38.4667 149.533 39 146.52 39H140.92ZM132.84 39V36.92H136.68V13.8H132.92V11.72H140.92V39H132.84Z" fill="#613643"/>
<path d="M95.0631 44.326C92.3518 45.5692 89.9859 46.7415 87.8036 47.8227C87.4145 48.0155 87.0313 48.2054 86.653 48.3923C83.7089 49.8466 81.0665 51.1169 78.2681 52.168C72.6887 54.2635 66.4548 55.5 56 55.5C45.6678 55.5 39.5553 51.082 36.0144 46.6863C34.2382 44.4814 33.1042 42.275 32.4147 40.6202C32.0701 39.7933 31.8373 39.1058 31.6911 38.6273C31.6844 38.6055 31.6779 38.5841 31.6716 38.5631L95.0631 44.326ZM98.2641 44.3854L161.604 38.5387C161.807 39.7392 161.477 40.6698 160.752 41.4416C159.912 42.3348 158.509 43.0468 156.643 43.6236C153.083 44.7236 148.101 45.2576 142.894 45.8156C142.646 45.8421 142.398 45.8688 142.149 45.8955C136.712 46.4799 131.105 47.1202 126.858 48.5125C124.732 49.2092 122.901 50.1079 121.596 51.3179C120.276 52.5421 119.5 54.0807 119.5 56C119.5 57.7451 119.336 58.9719 119.052 59.7844C118.771 60.59 118.404 60.9069 118.034 61.0067C117.627 61.1165 117.047 61.0146 116.248 60.602C115.462 60.1963 114.546 59.5336 113.509 58.6632C111.763 57.1973 109.74 55.2002 107.502 52.9895C107.081 52.5743 106.653 52.1515 106.218 51.7233C103.753 49.2986 101.067 46.7119 98.2641 44.3854ZM49.2242 10.2259L39.8861 23.2993C39.8629 23.2821 39.8388 23.2642 39.8139 23.2455C39.5115 23.0196 39.0809 22.6893 38.5713 22.274C37.5506 21.4422 36.2187 20.2742 34.964 18.9239C33.7059 17.5698 32.5453 16.0534 31.8458 14.5265C31.1464 12.9999 30.9324 11.5204 31.4645 10.1851C32.0627 8.68386 33.3981 7.89175 35.2109 7.58509C37.0331 7.27684 39.2529 7.47942 41.4341 7.9059C43.607 8.33075 45.7009 8.96936 47.255 9.50355C48.0311 9.77031 48.6704 10.0103 49.1149 10.1833C49.1528 10.198 49.1892 10.2122 49.2242 10.2259Z" fill="#BEAABC" stroke="#BEAABC"/>
</svg>
